<?xml version="1.0" encoding="utf-8" standalone="no"?>
<!DOCTYPE svg PUBLIC "-//W3C//DTD SVG 1.1//EN"
  "http://www.w3.org/Graphics/SVG/1.1/DTD/svg11.dtd">
<svg xmlns:xlink="http://www.w3.org/1999/xlink" width="1080pt" height="1080pt" viewBox="0 0 1080 1080" xmlns="http://www.w3.org/2000/svg" version="1.1">
 <metadata>
  <rdf:RDF xmlns:dc="http://purl.org/dc/elements/1.1/" xmlns:cc="http://creativecommons.org/ns#" xmlns:rdf="http://www.w3.org/1999/02/22-rdf-syntax-ns#">
   <cc:Work>
    <dc:type rdf:resource="http://purl.org/dc/dcmitype/StillImage"/>
    <dc:date>2023-06-24T10:26:46.649547</dc:date>
    <dc:format>image/svg+xml</dc:format>
    <dc:creator>
     <cc:Agent>
      <dc:title>Matplotlib v3.7.1, https://matplotlib.org/</dc:title>
     </cc:Agent>
    </dc:creator>
   </cc:Work>
  </rdf:RDF>
 </metadata>
 <defs>
  <style type="text/css">*{stroke-linejoin: round; stroke-linecap: butt}</style>
 </defs>
 <g id="figure_1">
  <g id="patch_1">
   <path d="M 0 1080 
L 1080 1080 
L 1080 0 
L 0 0 
z
" style="fill: #ffffff"/>
  </g>
  <g id="axes_1">
   <g id="patch_2">
    <path d="M 553.5 182.968369 
L 553.5 182.968369 
L 135 907.831631 
L 135 907.831631 
L 972 907.831631 
L 972 907.831631 
z
" style="fill: #ffffff"/>
   </g>
   <g id="PathCollection_1">
    <defs>
     <path id="m205e00e116" d="M 0 3 
C 0.795609 3 1.55874 2.683901 2.12132 2.12132 
C 2.683901 1.55874 3 0.795609 3 0 
C 3 -0.795609 2.683901 -1.55874 2.12132 -2.12132 
C 1.55874 -2.683901 0.795609 -3 0 -3 
C -0.795609 -3 -1.55874 -2.683901 -2.12132 -2.12132 
C -2.683901 -1.55874 -3 -0.795609 -3 0 
C -3 0.795609 -2.683901 1.55874 -2.12132 2.12132 
C -1.55874 2.683901 -0.795609 3 0 3 
z
" style="stroke: #d3d3d3"/>
    </defs>
    <g clip-path="url(#pe2144c98f8)">
     <use xlink:href="#m205e00e116" x="234.642857" y="735.24514" style="fill: #d3d3d3; stroke: #d3d3d3"/>
     <use xlink:href="#m205e00e116" x="398.5" y="773.597694" style="fill: #d3d3d3; stroke: #d3d3d3"/>
     <use xlink:href="#m205e00e116" x="448.875" y="778.391763" style="fill: #d3d3d3; stroke: #d3d3d3"/>
     <use xlink:href="#m205e00e116" x="398.5" y="773.597694" style="fill: #d3d3d3; stroke: #d3d3d3"/>
     <use xlink:href="#m205e00e116" x="489.115385" y="517.520644" style="fill: #d3d3d3; stroke: #d3d3d3"/>
     <use xlink:href="#m205e00e116" x="344.25" y="545.4" style="fill: #d3d3d3; stroke: #d3d3d3"/>
     <use xlink:href="#m205e00e116" x="222.1875" y="756.818452" style="fill: #d3d3d3; stroke: #d3d3d3"/>
     <use xlink:href="#m205e00e116" x="234.642857" y="735.24514" style="fill: #d3d3d3; stroke: #d3d3d3"/>
     <use xlink:href="#m205e00e116" x="573.428571" y="631.693246" style="fill: #d3d3d3; stroke: #d3d3d3"/>
     <use xlink:href="#m205e00e116" x="249.136364" y="710.141651" style="fill: #d3d3d3; stroke: #d3d3d3"/>
     <use xlink:href="#m205e00e116" x="553.5" y="694.636554" style="fill: #d3d3d3; stroke: #d3d3d3"/>
     <use xlink:href="#m205e00e116" x="225.978261" y="750.252661" style="fill: #d3d3d3; stroke: #d3d3d3"/>
     <use xlink:href="#m205e00e116" x="293.741379" y="632.883497" style="fill: #d3d3d3; stroke: #d3d3d3"/>
     <use xlink:href="#m205e00e116" x="792.642857" y="804.279737" style="fill: #d3d3d3; stroke: #d3d3d3"/>
     <use xlink:href="#m205e00e116" x="234.642857" y="735.24514" style="fill: #d3d3d3; stroke: #d3d3d3"/>
     <use xlink:href="#m205e00e116" x="513" y="720.770144" style="fill: #d3d3d3; stroke: #d3d3d3"/>
     <use xlink:href="#m205e00e116" x="361.6875" y="515.197364" style="fill: #d3d3d3; stroke: #d3d3d3"/>
     <use xlink:href="#m205e00e116" x="489.115385" y="406.003219" style="fill: #d3d3d3; stroke: #d3d3d3"/>
     <use xlink:href="#m205e00e116" x="421.971429" y="535.044811" style="fill: #d3d3d3; stroke: #d3d3d3"/>
     <use xlink:href="#m205e00e116" x="533.571429" y="838.797035" style="fill: #d3d3d3; stroke: #d3d3d3"/>
     <use xlink:href="#m205e00e116" x="331.941176" y="765.70158" style="fill: #d3d3d3; stroke: #d3d3d3"/>
     <use xlink:href="#m205e00e116" x="344.25" y="545.4" style="fill: #d3d3d3; stroke: #d3d3d3"/>
     <use xlink:href="#m205e00e116" x="400.05" y="787.021088" style="fill: #d3d3d3; stroke: #d3d3d3"/>
     <use xlink:href="#m205e00e116" x="553.5" y="640.776745" style="fill: #d3d3d3; stroke: #d3d3d3"/>
     <use xlink:href="#m205e00e116" x="595.35" y="617.886326" style="fill: #d3d3d3; stroke: #d3d3d3"/>
     <use xlink:href="#m205e00e116" x="591.545455" y="644.24499" style="fill: #d3d3d3; stroke: #d3d3d3"/>
     <use xlink:href="#m205e00e116" x="313.085106" y="753.605405" style="fill: #d3d3d3; stroke: #d3d3d3"/>
     <use xlink:href="#m205e00e116" x="525.6" y="521.237891" style="fill: #d3d3d3; stroke: #d3d3d3"/>
     <use xlink:href="#m205e00e116" x="361.6875" y="515.197364" style="fill: #d3d3d3; stroke: #d3d3d3"/>
     <use xlink:href="#m205e00e116" x="463.821429" y="441.848105" style="fill: #d3d3d3; stroke: #d3d3d3"/>
     <use xlink:href="#m205e00e116" x="285.66" y="646.880857" style="fill: #d3d3d3; stroke: #d3d3d3"/>
     <use xlink:href="#m205e00e116" x="595.35" y="617.886326" style="fill: #d3d3d3; stroke: #d3d3d3"/>
     <use xlink:href="#m205e00e116" x="234.642857" y="735.24514" style="fill: #d3d3d3; stroke: #d3d3d3"/>
     <use xlink:href="#m205e00e116" x="460.5" y="773.597694" style="fill: #d3d3d3; stroke: #d3d3d3"/>
     <use xlink:href="#m205e00e116" x="517.628571" y="535.044811" style="fill: #d3d3d3; stroke: #d3d3d3"/>
     <use xlink:href="#m205e00e116" x="475.03125" y="500.096046" style="fill: #d3d3d3; stroke: #d3d3d3"/>
     <use xlink:href="#m205e00e116" x="456.923077" y="573.279356" style="fill: #d3d3d3; stroke: #d3d3d3"/>
     <use xlink:href="#m205e00e116" x="397.588235" y="595.145518" style="fill: #d3d3d3; stroke: #d3d3d3"/>
     <use xlink:href="#m205e00e116" x="480.717391" y="435.094721" style="fill: #d3d3d3; stroke: #d3d3d3"/>
     <use xlink:href="#m205e00e116" x="398.5" y="773.597694" style="fill: #d3d3d3; stroke: #d3d3d3"/>
     <use xlink:href="#m205e00e116" x="473.361702" y="414.307708" style="fill: #d3d3d3; stroke: #d3d3d3"/>
     <use xlink:href="#m205e00e116" x="553.5" y="493.624053" style="fill: #d3d3d3; stroke: #d3d3d3"/>
     <use xlink:href="#m205e00e116" x="560.475" y="484.994728" style="fill: #d3d3d3; stroke: #d3d3d3"/>
     <use xlink:href="#m205e00e116" x="376.442308" y="489.641287" style="fill: #d3d3d3; stroke: #d3d3d3"/>
     <use xlink:href="#m205e00e116" x="568.446429" y="467.736079" style="fill: #d3d3d3; stroke: #d3d3d3"/>
     <use xlink:href="#m205e00e116" x="515.454545" y="644.24499" style="fill: #d3d3d3; stroke: #d3d3d3"/>
     <use xlink:href="#m205e00e116" x="538.553571" y="467.736079" style="fill: #d3d3d3; stroke: #d3d3d3"/>
     <use xlink:href="#m205e00e116" x="459.952941" y="430.274658" style="fill: #d3d3d3; stroke: #d3d3d3"/>
     <use xlink:href="#m205e00e116" x="425.387755" y="671.141586" style="fill: #d3d3d3; stroke: #d3d3d3"/>
     <use xlink:href="#m205e00e116" x="421.971429" y="659.307084" style="fill: #d3d3d3; stroke: #d3d3d3"/>
     <use xlink:href="#m205e00e116" x="553.5" y="505.129819" style="fill: #d3d3d3; stroke: #d3d3d3"/>
     <use xlink:href="#m205e00e116" x="517.628571" y="535.044811" style="fill: #d3d3d3; stroke: #d3d3d3"/>
     <use xlink:href="#m205e00e116" x="396.5625" y="636.007908" style="fill: #d3d3d3; stroke: #d3d3d3"/>
     <use xlink:href="#m205e00e116" x="397.588235" y="595.145518" style="fill: #d3d3d3; stroke: #d3d3d3"/>
     <use xlink:href="#m205e00e116" x="369.36" y="501.908204" style="fill: #d3d3d3; stroke: #d3d3d3"/>
     <use xlink:href="#m205e00e116" x="312.057692" y="601.158713" style="fill: #d3d3d3; stroke: #d3d3d3"/>
     <use xlink:href="#m205e00e116" x="553.5" y="700.727842" style="fill: #d3d3d3; stroke: #d3d3d3"/>
     <use xlink:href="#m205e00e116" x="396.5625" y="636.007908" style="fill: #d3d3d3; stroke: #d3d3d3"/>
     <use xlink:href="#m205e00e116" x="425.387755" y="671.141586" style="fill: #d3d3d3; stroke: #d3d3d3"/>
     <use xlink:href="#m205e00e116" x="312.057692" y="601.158713" style="fill: #d3d3d3; stroke: #d3d3d3"/>
     <use xlink:href="#m205e00e116" x="312.057692" y="601.158713" style="fill: #d3d3d3; stroke: #d3d3d3"/>
     <use xlink:href="#m205e00e116" x="553.5" y="735.24514" style="fill: #d3d3d3; stroke: #d3d3d3"/>
     <use xlink:href="#m205e00e116" x="421.971429" y="535.044811" style="fill: #d3d3d3; stroke: #d3d3d3"/>
     <use xlink:href="#m205e00e116" x="642.272727" y="512.45167" style="fill: #d3d3d3; stroke: #d3d3d3"/>
     <use xlink:href="#m205e00e116" x="566.578125" y="703.963839" style="fill: #d3d3d3; stroke: #d3d3d3"/>
     <use xlink:href="#m205e00e116" x="352" y="639.363756" style="fill: #d3d3d3; stroke: #d3d3d3"/>
     <use xlink:href="#m205e00e116" x="475.03125" y="500.096046" style="fill: #d3d3d3; stroke: #d3d3d3"/>
     <use xlink:href="#m205e00e116" x="553.5" y="493.624053" style="fill: #d3d3d3; stroke: #d3d3d3"/>
     <use xlink:href="#m205e00e116" x="553.5" y="483.855006" style="fill: #d3d3d3; stroke: #d3d3d3"/>
     <use xlink:href="#m205e00e116" x="553.5" y="493.624053" style="fill: #d3d3d3; stroke: #d3d3d3"/>
     <use xlink:href="#m205e00e116" x="361.6875" y="515.197364" style="fill: #d3d3d3; stroke: #d3d3d3"/>
     <use xlink:href="#m205e00e116" x="394.758621" y="657.878782" style="fill: #d3d3d3; stroke: #d3d3d3"/>
     <use xlink:href="#m205e00e116" x="645.046875" y="522.748023" style="fill: #d3d3d3; stroke: #d3d3d3"/>
     <use xlink:href="#m205e00e116" x="645.046875" y="522.748023" style="fill: #d3d3d3; stroke: #d3d3d3"/>
     <use xlink:href="#m205e00e116" x="352" y="639.363756" style="fill: #d3d3d3; stroke: #d3d3d3"/>
     <use xlink:href="#m205e00e116" x="567" y="486.943285" style="fill: #d3d3d3; stroke: #d3d3d3"/>
     <use xlink:href="#m205e00e116" x="473.361702" y="414.307708" style="fill: #d3d3d3; stroke: #d3d3d3"/>
     <use xlink:href="#m205e00e116" x="456.923077" y="350.244506" style="fill: #d3d3d3; stroke: #d3d3d3"/>
     <use xlink:href="#m205e00e116" x="553.5" y="461.761931" style="fill: #d3d3d3; stroke: #d3d3d3"/>
     <use xlink:href="#m205e00e116" x="798.827586" y="707.869352" style="fill: #d3d3d3; stroke: #d3d3d3"/>
     <use xlink:href="#m205e00e116" x="569" y="693.057331" style="fill: #d3d3d3; stroke: #d3d3d3"/>
     <use xlink:href="#m205e00e116" x="302.4" y="617.886326" style="fill: #d3d3d3; stroke: #d3d3d3"/>
     <use xlink:href="#m205e00e116" x="553.5" y="524.080492" style="fill: #d3d3d3; stroke: #d3d3d3"/>
     <use xlink:href="#m205e00e116" x="369.947368" y="628.059846" style="fill: #d3d3d3; stroke: #d3d3d3"/>
     <use xlink:href="#m205e00e116" x="613.285714" y="355.55486" style="fill: #d3d3d3; stroke: #d3d3d3"/>
     <use xlink:href="#m205e00e116" x="553.5" y="489.641287" style="fill: #d3d3d3; stroke: #d3d3d3"/>
     <use xlink:href="#m205e00e116" x="569" y="478.283031" style="fill: #d3d3d3; stroke: #d3d3d3"/>
     <use xlink:href="#m205e00e116" x="485.635135" y="535.604551" style="fill: #d3d3d3; stroke: #d3d3d3"/>
     <use xlink:href="#m205e00e116" x="531.473684" y="678.927443" style="fill: #d3d3d3; stroke: #d3d3d3"/>
     <use xlink:href="#m205e00e116" x="553.5" y="483.855006" style="fill: #d3d3d3; stroke: #d3d3d3"/>
     <use xlink:href="#m205e00e116" x="380.327586" y="632.883497" style="fill: #d3d3d3; stroke: #d3d3d3"/>
     <use xlink:href="#m205e00e116" x="565.457143" y="452.203295" style="fill: #d3d3d3; stroke: #d3d3d3"/>
     <use xlink:href="#m205e00e116" x="553.5" y="597.175947" style="fill: #d3d3d3; stroke: #d3d3d3"/>
     <use xlink:href="#m205e00e116" x="495.375" y="525.264909" style="fill: #d3d3d3; stroke: #d3d3d3"/>
     <use xlink:href="#m205e00e116" x="553.5" y="493.624053" style="fill: #d3d3d3; stroke: #d3d3d3"/>
     <use xlink:href="#m205e00e116" x="439.363636" y="600.313884" style="fill: #d3d3d3; stroke: #d3d3d3"/>
     <use xlink:href="#m205e00e116" x="553.5" y="700.727842" style="fill: #d3d3d3; stroke: #d3d3d3"/>
     <use xlink:href="#m205e00e116" x="401.318182" y="446.55501" style="fill: #d3d3d3; stroke: #d3d3d3"/>
     <use xlink:href="#m205e00e116" x="567.45" y="448.751565" style="fill: #d3d3d3; stroke: #d3d3d3"/>
     <use xlink:href="#m205e00e116" x="553.5" y="700.727842" style="fill: #d3d3d3; stroke: #d3d3d3"/>
     <use xlink:href="#m205e00e116" x="517.628571" y="535.044811" style="fill: #d3d3d3; stroke: #d3d3d3"/>
     <use xlink:href="#m205e00e116" x="567" y="393.412542" style="fill: #d3d3d3; stroke: #d3d3d3"/>
     <use xlink:href="#m205e00e116" x="610.568182" y="347.710019" style="fill: #d3d3d3; stroke: #d3d3d3"/>
     <use xlink:href="#m205e00e116" x="553.5" y="524.080492" style="fill: #d3d3d3; stroke: #d3d3d3"/>
     <use xlink:href="#m205e00e116" x="499.5" y="463.560599" style="fill: #d3d3d3; stroke: #d3d3d3"/>
     <use xlink:href="#m205e00e116" x="569.292453" y="511.208337" style="fill: #d3d3d3; stroke: #d3d3d3"/>
     <use xlink:href="#m205e00e116" x="414" y="424.589456" style="fill: #d3d3d3; stroke: #d3d3d3"/>
     <use xlink:href="#m205e00e116" x="311.210526" y="831.530235" style="fill: #d3d3d3; stroke: #d3d3d3"/>
     <use xlink:href="#m205e00e116" x="581.4" y="714.534761" style="fill: #d3d3d3; stroke: #d3d3d3"/>
     <use xlink:href="#m205e00e116" x="553.5" y="531.976606" style="fill: #d3d3d3; stroke: #d3d3d3"/>
     <use xlink:href="#m205e00e116" x="613.285714" y="355.55486" style="fill: #d3d3d3; stroke: #d3d3d3"/>
     <use xlink:href="#m205e00e116" x="524.302326" y="503.256787" style="fill: #d3d3d3; stroke: #d3d3d3"/>
     <use xlink:href="#m205e00e116" x="784.396552" y="682.874067" style="fill: #d3d3d3; stroke: #d3d3d3"/>
     <use xlink:href="#m205e00e116" x="402.84" y="559.897265" style="fill: #d3d3d3; stroke: #d3d3d3"/>
     <use xlink:href="#m205e00e116" x="540.818182" y="512.45167" style="fill: #d3d3d3; stroke: #d3d3d3"/>
     <use xlink:href="#m205e00e116" x="421.342105" y="411.872557" style="fill: #d3d3d3; stroke: #d3d3d3"/>
     <use xlink:href="#m205e00e116" x="540" y="627.239401" style="fill: #d3d3d3; stroke: #d3d3d3"/>
     <use xlink:href="#m205e00e116" x="360.346154" y="517.520644" style="fill: #d3d3d3; stroke: #d3d3d3"/>
     <use xlink:href="#m205e00e116" x="553.5" y="694.636554" style="fill: #d3d3d3; stroke: #d3d3d3"/>
     <use xlink:href="#m205e00e116" x="489.115385" y="406.003219" style="fill: #d3d3d3; stroke: #d3d3d3"/>
     <use xlink:href="#m205e00e116" x="499.846154" y="536.106881" style="fill: #d3d3d3; stroke: #d3d3d3"/>
     <use xlink:href="#m205e00e116" x="498.913043" y="655.705279" style="fill: #d3d3d3; stroke: #d3d3d3"/>
     <use xlink:href="#m205e00e116" x="618.6" y="360.157166" style="fill: #d3d3d3; stroke: #d3d3d3"/>
     <use xlink:href="#m205e00e116" x="553.5" y="534.417223" style="fill: #d3d3d3; stroke: #d3d3d3"/>
     <use xlink:href="#m205e00e116" x="541.191176" y="545.4" style="fill: #d3d3d3; stroke: #d3d3d3"/>
     <use xlink:href="#m205e00e116" x="496.945946" y="516.013652" style="fill: #d3d3d3; stroke: #d3d3d3"/>
     <use xlink:href="#m205e00e116" x="553.5" y="534.417223" style="fill: #d3d3d3; stroke: #d3d3d3"/>
     <use xlink:href="#m205e00e116" x="474.324324" y="437.650056" style="fill: #d3d3d3; stroke: #d3d3d3"/>
     <use xlink:href="#m205e00e116" x="553.5" y="472.913674" style="fill: #d3d3d3; stroke: #d3d3d3"/>
     <use xlink:href="#m205e00e116" x="564.810811" y="437.650056" style="fill: #d3d3d3; stroke: #d3d3d3"/>
     <use xlink:href="#m205e00e116" x="287.181818" y="644.24499" style="fill: #d3d3d3; stroke: #d3d3d3"/>
     <use xlink:href="#m205e00e116" x="623.25" y="497.075782" style="fill: #d3d3d3; stroke: #d3d3d3"/>
     <use xlink:href="#m205e00e116" x="421.342105" y="411.872557" style="fill: #d3d3d3; stroke: #d3d3d3"/>
     <use xlink:href="#m205e00e116" x="312.057692" y="601.158713" style="fill: #d3d3d3; stroke: #d3d3d3"/>
     <use xlink:href="#m205e00e116" x="397.588235" y="595.145518" style="fill: #d3d3d3; stroke: #d3d3d3"/>
     <use xlink:href="#m205e00e116" x="541.191176" y="502.760985" style="fill: #d3d3d3; stroke: #d3d3d3"/>
     <use xlink:href="#m205e00e116" x="574.425" y="654.129489" style="fill: #d3d3d3; stroke: #d3d3d3"/>
     <use xlink:href="#m205e00e116" x="204.75" y="787.021088" style="fill: #d3d3d3; stroke: #d3d3d3"/>
     <use xlink:href="#m205e00e116" x="433.928571" y="735.24514" style="fill: #d3d3d3; stroke: #d3d3d3"/>
     <use xlink:href="#m205e00e116" x="584.5" y="505.129819" style="fill: #d3d3d3; stroke: #d3d3d3"/>
     <use xlink:href="#m205e00e116" x="515.454545" y="644.24499" style="fill: #d3d3d3; stroke: #d3d3d3"/>
     <use xlink:href="#m205e00e116" x="285.66" y="646.880857" style="fill: #d3d3d3; stroke: #d3d3d3"/>
     <use xlink:href="#m205e00e116" x="553.5" y="472.913674" style="fill: #d3d3d3; stroke: #d3d3d3"/>
     <use xlink:href="#m205e00e116" x="218.7" y="762.858979" style="fill: #d3d3d3; stroke: #d3d3d3"/>
     <use xlink:href="#m205e00e116" x="540.818182" y="512.45167" style="fill: #d3d3d3; stroke: #d3d3d3"/>
     <use xlink:href="#m205e00e116" x="533.571429" y="838.797035" style="fill: #d3d3d3; stroke: #d3d3d3"/>
     <use xlink:href="#m205e00e116" x="225.978261" y="750.252661" style="fill: #d3d3d3; stroke: #d3d3d3"/>
     <use xlink:href="#m205e00e116" x="644.478261" y="529.642103" style="fill: #d3d3d3; stroke: #d3d3d3"/>
     <use xlink:href="#m205e00e116" x="344.25" y="545.4" style="fill: #d3d3d3; stroke: #d3d3d3"/>
     <use xlink:href="#m205e00e116" x="567" y="393.412542" style="fill: #d3d3d3; stroke: #d3d3d3"/>
     <use xlink:href="#m205e00e116" x="530.25" y="545.4" style="fill: #d3d3d3; stroke: #d3d3d3"/>
     <use xlink:href="#m205e00e116" x="314.357143" y="597.175947" style="fill: #d3d3d3; stroke: #d3d3d3"/>
     <use xlink:href="#m205e00e116" x="204.75" y="787.021088" style="fill: #d3d3d3; stroke: #d3d3d3"/>
     <use xlink:href="#m205e00e116" x="397.588235" y="595.145518" style="fill: #d3d3d3; stroke: #d3d3d3"/>
     <use xlink:href="#m205e00e116" x="225.978261" y="750.252661" style="fill: #d3d3d3; stroke: #d3d3d3"/>
     <use xlink:href="#m205e00e116" x="443.368421" y="602.626047" style="fill: #d3d3d3; stroke: #d3d3d3"/>
     <use xlink:href="#m205e00e116" x="553.5" y="461.761931" style="fill: #d3d3d3; stroke: #d3d3d3"/>
     <use xlink:href="#m205e00e116" x="499.846154" y="387.416981" style="fill: #d3d3d3; stroke: #d3d3d3"/>
     <use xlink:href="#m205e00e116" x="538" y="639.363756" style="fill: #d3d3d3; stroke: #d3d3d3"/>
     <use xlink:href="#m205e00e116" x="727.875" y="605.805272" style="fill: #d3d3d3; stroke: #d3d3d3"/>
     <use xlink:href="#m205e00e116" x="536.76" y="617.886326" style="fill: #d3d3d3; stroke: #d3d3d3"/>
     <use xlink:href="#m205e00e116" x="475.03125" y="500.096046" style="fill: #d3d3d3; stroke: #d3d3d3"/>
     <use xlink:href="#m205e00e116" x="444.326087" y="687.221073" style="fill: #d3d3d3; stroke: #d3d3d3"/>
     <use xlink:href="#m205e00e116" x="832.5" y="666.210544" style="fill: #d3d3d3; stroke: #d3d3d3"/>
     <use xlink:href="#m205e00e116" x="204.75" y="787.021088" style="fill: #d3d3d3; stroke: #d3d3d3"/>
     <use xlink:href="#m205e00e116" x="204.75" y="787.021088" style="fill: #d3d3d3; stroke: #d3d3d3"/>
     <use xlink:href="#m205e00e116" x="500.525316" y="384.829024" style="fill: #d3d3d3; stroke: #d3d3d3"/>
     <use xlink:href="#m205e00e116" x="239.625" y="726.615816" style="fill: #d3d3d3; stroke: #d3d3d3"/>
     <use xlink:href="#m205e00e116" x="439.363636" y="512.45167" style="fill: #d3d3d3; stroke: #d3d3d3"/>
     <use xlink:href="#m205e00e116" x="515.454545" y="644.24499" style="fill: #d3d3d3; stroke: #d3d3d3"/>
     <use xlink:href="#m205e00e116" x="476.407895" y="392.797208" style="fill: #d3d3d3; stroke: #d3d3d3"/>
     <use xlink:href="#m205e00e116" x="553.5" y="666.210544" style="fill: #d3d3d3; stroke: #d3d3d3"/>
     <use xlink:href="#m205e00e116" x="490.725" y="436.670511" style="fill: #d3d3d3; stroke: #d3d3d3"/>
     <use xlink:href="#m205e00e116" x="553.5" y="629.038069" style="fill: #d3d3d3; stroke: #d3d3d3"/>
     <use xlink:href="#m205e00e116" x="488.109375" y="386.836161" style="fill: #d3d3d3; stroke: #d3d3d3"/>
     <use xlink:href="#m205e00e116" x="455.029412" y="353.52443" style="fill: #d3d3d3; stroke: #d3d3d3"/>
     <use xlink:href="#m205e00e116" x="643.178571" y="597.175947" style="fill: #d3d3d3; stroke: #d3d3d3"/>
     <use xlink:href="#m205e00e116" x="488.109375" y="386.836161" style="fill: #d3d3d3; stroke: #d3d3d3"/>
     <use xlink:href="#m205e00e116" x="553.5" y="431.492916" style="fill: #d3d3d3; stroke: #d3d3d3"/>
     <use xlink:href="#m205e00e116" x="475.474576" y="440.970547" style="fill: #d3d3d3; stroke: #d3d3d3"/>
     <use xlink:href="#m205e00e116" x="488.109375" y="386.836161" style="fill: #d3d3d3; stroke: #d3d3d3"/>
     <use xlink:href="#m205e00e116" x="446.44186" y="536.971357" style="fill: #d3d3d3; stroke: #d3d3d3"/>
     <use xlink:href="#m205e00e116" x="475.474576" y="440.970547" style="fill: #d3d3d3; stroke: #d3d3d3"/>
     <use xlink:href="#m205e00e116" x="448.875" y="581.643163" style="fill: #d3d3d3; stroke: #d3d3d3"/>
     <use xlink:href="#m205e00e116" x="553.5" y="431.492916" style="fill: #d3d3d3; stroke: #d3d3d3"/>
     <use xlink:href="#m205e00e116" x="553.5" y="431.492916" style="fill: #d3d3d3; stroke: #d3d3d3"/>
     <use xlink:href="#m205e00e116" x="530.25" y="545.4" style="fill: #d3d3d3; stroke: #d3d3d3"/>
     <use xlink:href="#m205e00e116" x="473.785714" y="493.624053" style="fill: #d3d3d3; stroke: #d3d3d3"/>
     <use xlink:href="#m205e00e116" x="646.5" y="612.516969" style="fill: #d3d3d3; stroke: #d3d3d3"/>
     <use xlink:href="#m205e00e116" x="650.076923" y="629.038069" style="fill: #d3d3d3; stroke: #d3d3d3"/>
     <use xlink:href="#m205e00e116" x="776.7" y="666.210544" style="fill: #d3d3d3; stroke: #d3d3d3"/>
     <use xlink:href="#m205e00e116" x="335.152174" y="750.252661" style="fill: #d3d3d3; stroke: #d3d3d3"/>
     <use xlink:href="#m205e00e116" x="553.5" y="431.492916" style="fill: #d3d3d3; stroke: #d3d3d3"/>
     <use xlink:href="#m205e00e116" x="369.36" y="501.908204" style="fill: #d3d3d3; stroke: #d3d3d3"/>
     <use xlink:href="#m205e00e116" x="369.36" y="501.908204" style="fill: #d3d3d3; stroke: #d3d3d3"/>
     <use xlink:href="#m205e00e116" x="450.590164" y="480.043476" style="fill: #d3d3d3; stroke: #d3d3d3"/>
     <use xlink:href="#m205e00e116" x="448.875" y="484.994728" style="fill: #d3d3d3; stroke: #d3d3d3"/>
     <use xlink:href="#m205e00e116" x="341.217391" y="655.705279" style="fill: #d3d3d3; stroke: #d3d3d3"/>
     <use xlink:href="#m205e00e116" x="218.7" y="762.858979" style="fill: #d3d3d3; stroke: #d3d3d3"/>
     <use xlink:href="#m205e00e116" x="341.217391" y="655.705279" style="fill: #d3d3d3; stroke: #d3d3d3"/>
     <use xlink:href="#m205e00e116" x="439.363636" y="512.45167" style="fill: #d3d3d3; stroke: #d3d3d3"/>
     <use xlink:href="#m205e00e116" x="525.6" y="617.886326" style="fill: #d3d3d3; stroke: #d3d3d3"/>
     <use xlink:href="#m205e00e116" x="420.340909" y="545.4" style="fill: #d3d3d3; stroke: #d3d3d3"/>
     <use xlink:href="#m205e00e116" x="409.42623" y="646.405537" style="fill: #d3d3d3; stroke: #d3d3d3"/>
     <use xlink:href="#m205e00e116" x="490.725" y="436.670511" style="fill: #d3d3d3; stroke: #d3d3d3"/>
     <use xlink:href="#m205e00e116" x="466.913793" y="782.855207" style="fill: #d3d3d3; stroke: #d3d3d3"/>
     <use xlink:href="#m205e00e116" x="340.301887" y="743.711647" style="fill: #d3d3d3; stroke: #d3d3d3"/>
     <use xlink:href="#m205e00e116" x="454.381579" y="507.249302" style="fill: #d3d3d3; stroke: #d3d3d3"/>
     <use xlink:href="#m205e00e116" x="467.653846" y="480.348169" style="fill: #d3d3d3; stroke: #d3d3d3"/>
     <use xlink:href="#m205e00e116" x="456.923077" y="498.934406" style="fill: #d3d3d3; stroke: #d3d3d3"/>
     <use xlink:href="#m205e00e116" x="448.875" y="484.994728" style="fill: #d3d3d3; stroke: #d3d3d3"/>
     <use xlink:href="#m205e00e116" x="489.115385" y="629.038069" style="fill: #d3d3d3; stroke: #d3d3d3"/>
     <use xlink:href="#m205e00e116" x="517.628571" y="535.044811" style="fill: #d3d3d3; stroke: #d3d3d3"/>
     <use xlink:href="#m205e00e116" x="491.5" y="666.210544" style="fill: #d3d3d3; stroke: #d3d3d3"/>
     <use xlink:href="#m205e00e116" x="538.553571" y="674.839868" style="fill: #d3d3d3; stroke: #d3d3d3"/>
     <use xlink:href="#m205e00e116" x="617.884615" y="545.4" style="fill: #d3d3d3; stroke: #d3d3d3"/>
     <use xlink:href="#m205e00e116" x="424.730769" y="740.555494" style="fill: #d3d3d3; stroke: #d3d3d3"/>
     <use xlink:href="#m205e00e116" x="522.5" y="666.210544" style="fill: #d3d3d3; stroke: #d3d3d3"/>
     <use xlink:href="#m205e00e116" x="553.5" y="467.736079" style="fill: #d3d3d3; stroke: #d3d3d3"/>
     <use xlink:href="#m205e00e116" x="480.717391" y="435.094721" style="fill: #d3d3d3; stroke: #d3d3d3"/>
     <use xlink:href="#m205e00e116" x="339.6" y="714.534761" style="fill: #d3d3d3; stroke: #d3d3d3"/>
     <use xlink:href="#m205e00e116" x="530.25" y="545.4" style="fill: #d3d3d3; stroke: #d3d3d3"/>
     <use xlink:href="#m205e00e116" x="530.25" y="545.4" style="fill: #d3d3d3; stroke: #d3d3d3"/>
     <use xlink:href="#m205e00e116" x="525.6" y="521.237891" style="fill: #d3d3d3; stroke: #d3d3d3"/>
     <use xlink:href="#m205e00e116" x="466.913793" y="782.855207" style="fill: #d3d3d3; stroke: #d3d3d3"/>
     <use xlink:href="#m205e00e116" x="331.941176" y="765.70158" style="fill: #d3d3d3; stroke: #d3d3d3"/>
     <use xlink:href="#m205e00e116" x="225.978261" y="750.252661" style="fill: #d3d3d3; stroke: #d3d3d3"/>
     <use xlink:href="#m205e00e116" x="483.75" y="424.589456" style="fill: #d3d3d3; stroke: #d3d3d3"/>
     <use xlink:href="#m205e00e116" x="394.071429" y="597.175947" style="fill: #d3d3d3; stroke: #d3d3d3"/>
     <use xlink:href="#m205e00e116" x="553.5" y="735.24514" style="fill: #d3d3d3; stroke: #d3d3d3"/>
     <use xlink:href="#m205e00e116" x="517.628571" y="535.044811" style="fill: #d3d3d3; stroke: #d3d3d3"/>
     <use xlink:href="#m205e00e116" x="668.948276" y="482.911788" style="fill: #d3d3d3; stroke: #d3d3d3"/>
     <use xlink:href="#m205e00e116" x="544.2" y="295.724876" style="fill: #d3d3d3; stroke: #d3d3d3"/>
     <use xlink:href="#m205e00e116" x="667.636364" y="446.55501" style="fill: #d3d3d3; stroke: #d3d3d3"/>
    </g>
   </g>
   <g id="PathCollection_2">
    <defs>
     <path id="m7114ea366e" d="M 0 3 
C 0.795609 3 1.55874 2.683901 2.12132 2.12132 
C 2.683901 1.55874 3 0.795609 3 0 
C 3 -0.795609 2.683901 -1.55874 2.12132 -2.12132 
C 1.55874 -2.683901 0.795609 -3 0 -3 
C -0.795609 -3 -1.55874 -2.683901 -2.12132 -2.12132 
C -2.683901 -1.55874 -3 -0.795609 -3 0 
C -3 0.795609 -2.683901 1.55874 -2.12132 2.12132 
C -1.55874 2.683901 -0.795609 3 0 3 
z
" style="stroke: #1f77b4"/>
    </defs>
    <g clip-path="url(#pe2144c98f8)">
     <use xlink:href="#m7114ea366e" x="234.642857" y="735.24514" style="fill: #1f77b4; stroke: #1f77b4"/>
     <use xlink:href="#m7114ea366e" x="222.1875" y="756.818452" style="fill: #1f77b4; stroke: #1f77b4"/>
     <use xlink:href="#m7114ea366e" x="293.741379" y="632.883497" style="fill: #1f77b4; stroke: #1f77b4"/>
     <use xlink:href="#m7114ea366e" x="489.115385" y="406.003219" style="fill: #1f77b4; stroke: #1f77b4"/>
     <use xlink:href="#m7114ea366e" x="234.642857" y="735.24514" style="fill: #1f77b4; stroke: #1f77b4"/>
     <use xlink:href="#m7114ea366e" x="473.361702" y="414.307708" style="fill: #1f77b4; stroke: #1f77b4"/>
     <use xlink:href="#m7114ea366e" x="553.5" y="505.129819" style="fill: #1f77b4; stroke: #1f77b4"/>
     <use xlink:href="#m7114ea366e" x="312.057692" y="601.158713" style="fill: #1f77b4; stroke: #1f77b4"/>
     <use xlink:href="#m7114ea366e" x="312.057692" y="601.158713" style="fill: #1f77b4; stroke: #1f77b4"/>
     <use xlink:href="#m7114ea366e" x="312.057692" y="601.158713" style="fill: #1f77b4; stroke: #1f77b4"/>
     <use xlink:href="#m7114ea366e" x="421.971429" y="535.044811" style="fill: #1f77b4; stroke: #1f77b4"/>
     <use xlink:href="#m7114ea366e" x="369.947368" y="628.059846" style="fill: #1f77b4; stroke: #1f77b4"/>
     <use xlink:href="#m7114ea366e" x="380.327586" y="632.883497" style="fill: #1f77b4; stroke: #1f77b4"/>
     <use xlink:href="#m7114ea366e" x="421.342105" y="411.872557" style="fill: #1f77b4; stroke: #1f77b4"/>
     <use xlink:href="#m7114ea366e" x="489.115385" y="406.003219" style="fill: #1f77b4; stroke: #1f77b4"/>
     <use xlink:href="#m7114ea366e" x="474.324324" y="437.650056" style="fill: #1f77b4; stroke: #1f77b4"/>
     <use xlink:href="#m7114ea366e" x="287.181818" y="644.24499" style="fill: #1f77b4; stroke: #1f77b4"/>
     <use xlink:href="#m7114ea366e" x="312.057692" y="601.158713" style="fill: #1f77b4; stroke: #1f77b4"/>
     <use xlink:href="#m7114ea366e" x="285.66" y="646.880857" style="fill: #1f77b4; stroke: #1f77b4"/>
     <use xlink:href="#m7114ea366e" x="344.25" y="545.4" style="fill: #1f77b4; stroke: #1f77b4"/>
     <use xlink:href="#m7114ea366e" x="443.368421" y="602.626047" style="fill: #1f77b4; stroke: #1f77b4"/>
     <use xlink:href="#m7114ea366e" x="239.625" y="726.615816" style="fill: #1f77b4; stroke: #1f77b4"/>
     <use xlink:href="#m7114ea366e" x="488.109375" y="386.836161" style="fill: #1f77b4; stroke: #1f77b4"/>
     <use xlink:href="#m7114ea366e" x="488.109375" y="386.836161" style="fill: #1f77b4; stroke: #1f77b4"/>
     <use xlink:href="#m7114ea366e" x="475.474576" y="440.970547" style="fill: #1f77b4; stroke: #1f77b4"/>
     <use xlink:href="#m7114ea366e" x="218.7" y="762.858979" style="fill: #1f77b4; stroke: #1f77b4"/>
     <use xlink:href="#m7114ea366e" x="420.340909" y="545.4" style="fill: #1f77b4; stroke: #1f77b4"/>
     <use xlink:href="#m7114ea366e" x="409.42623" y="646.405537" style="fill: #1f77b4; stroke: #1f77b4"/>
     <use xlink:href="#m7114ea366e" x="339.6" y="714.534761" style="fill: #1f77b4; stroke: #1f77b4"/>
     <use xlink:href="#m7114ea366e" x="394.071429" y="597.175947" style="fill: #1f77b4; stroke: #1f77b4"/>
    </g>
   </g>
   <g id="PathCollection_3">
    <defs>
     <path id="m25e6eaeb77" d="M 0 3 
C 0.795609 3 1.55874 2.683901 2.12132 2.12132 
C 2.683901 1.55874 3 0.795609 3 0 
C 3 -0.795609 2.683901 -1.55874 2.12132 -2.12132 
C 1.55874 -2.683901 0.795609 -3 0 -3 
C -0.795609 -3 -1.55874 -2.683901 -2.12132 -2.12132 
C -2.683901 -1.55874 -3 -0.795609 -3 0 
C -3 0.795609 -2.683901 1.55874 -2.12132 2.12132 
C -1.55874 2.683901 -0.795609 3 0 3 
z
" style="stroke: #ffa500"/>
    </defs>
    <g clip-path="url(#pe2144c98f8)">
     <use xlink:href="#m25e6eaeb77" x="234.642857" y="735.24514" style="fill: #ffa500; stroke: #ffa500"/>
     <use xlink:href="#m25e6eaeb77" x="222.1875" y="756.818452" style="fill: #ffa500; stroke: #ffa500"/>
     <use xlink:href="#m25e6eaeb77" x="293.741379" y="632.883497" style="fill: #ffa500; stroke: #ffa500"/>
     <use xlink:href="#m25e6eaeb77" x="234.642857" y="735.24514" style="fill: #ffa500; stroke: #ffa500"/>
     <use xlink:href="#m25e6eaeb77" x="312.057692" y="601.158713" style="fill: #ffa500; stroke: #ffa500"/>
     <use xlink:href="#m25e6eaeb77" x="312.057692" y="601.158713" style="fill: #ffa500; stroke: #ffa500"/>
     <use xlink:href="#m25e6eaeb77" x="312.057692" y="601.158713" style="fill: #ffa500; stroke: #ffa500"/>
     <use xlink:href="#m25e6eaeb77" x="421.342105" y="411.872557" style="fill: #ffa500; stroke: #ffa500"/>
     <use xlink:href="#m25e6eaeb77" x="287.181818" y="644.24499" style="fill: #ffa500; stroke: #ffa500"/>
     <use xlink:href="#m25e6eaeb77" x="312.057692" y="601.158713" style="fill: #ffa500; stroke: #ffa500"/>
     <use xlink:href="#m25e6eaeb77" x="285.66" y="646.880857" style="fill: #ffa500; stroke: #ffa500"/>
     <use xlink:href="#m25e6eaeb77" x="344.25" y="545.4" style="fill: #ffa500; stroke: #ffa500"/>
     <use xlink:href="#m25e6eaeb77" x="239.625" y="726.615816" style="fill: #ffa500; stroke: #ffa500"/>
     <use xlink:href="#m25e6eaeb77" x="218.7" y="762.858979" style="fill: #ffa500; stroke: #ffa500"/>
    </g>
   </g>
   <g id="PathCollection_4">
    <defs>
     <path id="me7aa68549f" d="M 0 3 
C 0.795609 3 1.55874 2.683901 2.12132 2.12132 
C 2.683901 1.55874 3 0.795609 3 0 
C 3 -0.795609 2.683901 -1.55874 2.12132 -2.12132 
C 1.55874 -2.683901 0.795609 -3 0 -3 
C -0.795609 -3 -1.55874 -2.683901 -2.12132 -2.12132 
C -2.683901 -1.55874 -3 -0.795609 -3 0 
C -3 0.795609 -2.683901 1.55874 -2.12132 2.12132 
C -1.55874 2.683901 -0.795609 3 0 3 
z
" style="stroke: #ff0000"/>
    </defs>
    <g clip-path="url(#pe2144c98f8)">
     <use xlink:href="#me7aa68549f" x="667.636364" y="446.55501" style="fill: #ff0000; stroke: #ff0000"/>
    </g>
   </g>
   <g id="PathCollection_5">
    <defs>
     <path id="m74166c5e52" d="M 0 3 
C 0.795609 3 1.55874 2.683901 2.12132 2.12132 
C 2.683901 1.55874 3 0.795609 3 0 
C 3 -0.795609 2.683901 -1.55874 2.12132 -2.12132 
C 1.55874 -2.683901 0.795609 -3 0 -3 
C -0.795609 -3 -1.55874 -2.683901 -2.12132 -2.12132 
C -2.683901 -1.55874 -3 -0.795609 -3 0 
C -3 0.795609 -2.683901 1.55874 -2.12132 2.12132 
C -1.55874 2.683901 -0.795609 3 0 3 
z
" style="stroke: #ffff00"/>
    </defs>
    <g clip-path="url(#pe2144c98f8)">
     <use xlink:href="#m74166c5e52" x="544.2" y="295.724876" style="fill: #ffff00; stroke: #ffff00"/>
    </g>
   </g>
   <g id="matplotlib.axis_1">
    <g id="xtick_1">
     <g id="line2d_1">
      <path d="M 972 907.831631 
L 135 907.831631 
" style="fill: none; stroke: #b0b0b0; stroke-opacity: 0.75; stroke-width: 0.8; stroke-linecap: square"/>
     </g>
    </g>
    <g id="xtick_2">
     <g id="line2d_2">
      <path d="M 888.3 762.858979 
L 218.7 762.858979 
" style="fill: none; stroke: #b0b0b0; stroke-opacity: 0.75; stroke-width: 0.8; stroke-linecap: square"/>
     </g>
    </g>
    <g id="xtick_3">
     <g id="line2d_3">
      <path d="M 804.6 617.886326 
L 302.4 617.886326 
" style="fill: none; stroke: #b0b0b0; stroke-opacity: 0.75; stroke-width: 0.8; stroke-linecap: square"/>
     </g>
    </g>
    <g id="xtick_4">
     <g id="line2d_4">
      <path d="M 720.9 472.913674 
L 386.1 472.913674 
" style="fill: none; stroke: #b0b0b0; stroke-opacity: 0.75; stroke-width: 0.8; stroke-linecap: square"/>
     </g>
    </g>
    <g id="xtick_5">
     <g id="line2d_5">
      <path d="M 637.2 327.941021 
L 469.8 327.941021 
" style="fill: none; stroke: #b0b0b0; stroke-opacity: 0.75; stroke-width: 0.8; stroke-linecap: square"/>
     </g>
    </g>
    <g id="xtick_6">
     <g id="line2d_6">
      <path d="M 553.5 182.968369 
L 553.5 182.968369 
" style="fill: none; stroke: #b0b0b0; stroke-opacity: 0.75; stroke-width: 0.8; stroke-linecap: square"/>
     </g>
    </g>
    <g id="text_1">
     <!-- Sugar -->
     <g transform="translate(538.863281 176.888681) scale(0.1 -0.1)">
      <defs>
       <path id="DejaVuSans-53" d="M 3425 4513 
L 3425 3897 
Q 3066 4069 2747 4153 
Q 2428 4238 2131 4238 
Q 1616 4238 1336 4038 
Q 1056 3838 1056 3469 
Q 1056 3159 1242 3001 
Q 1428 2844 1947 2747 
L 2328 2669 
Q 3034 2534 3370 2195 
Q 3706 1856 3706 1288 
Q 3706 609 3251 259 
Q 2797 -91 1919 -91 
Q 1588 -91 1214 -16 
Q 841 59 441 206 
L 441 856 
Q 825 641 1194 531 
Q 1563 422 1919 422 
Q 2459 422 2753 634 
Q 3047 847 3047 1241 
Q 3047 1584 2836 1778 
Q 2625 1972 2144 2069 
L 1759 2144 
Q 1053 2284 737 2584 
Q 422 2884 422 3419 
Q 422 4038 858 4394 
Q 1294 4750 2059 4750 
Q 2388 4750 2728 4690 
Q 3069 4631 3425 4513 
z
" transform="scale(0.015625)"/>
       <path id="DejaVuSans-75" d="M 544 1381 
L 544 3500 
L 1119 3500 
L 1119 1403 
Q 1119 906 1312 657 
Q 1506 409 1894 409 
Q 2359 409 2629 706 
Q 2900 1003 2900 1516 
L 2900 3500 
L 3475 3500 
L 3475 0 
L 2900 0 
L 2900 538 
Q 2691 219 2414 64 
Q 2138 -91 1772 -91 
Q 1169 -91 856 284 
Q 544 659 544 1381 
z
M 1991 3584 
L 1991 3584 
z
" transform="scale(0.015625)"/>
       <path id="DejaVuSans-67" d="M 2906 1791 
Q 2906 2416 2648 2759 
Q 2391 3103 1925 3103 
Q 1463 3103 1205 2759 
Q 947 2416 947 1791 
Q 947 1169 1205 825 
Q 1463 481 1925 481 
Q 2391 481 2648 825 
Q 2906 1169 2906 1791 
z
M 3481 434 
Q 3481 -459 3084 -895 
Q 2688 -1331 1869 -1331 
Q 1566 -1331 1297 -1286 
Q 1028 -1241 775 -1147 
L 775 -588 
Q 1028 -725 1275 -790 
Q 1522 -856 1778 -856 
Q 2344 -856 2625 -561 
Q 2906 -266 2906 331 
L 2906 616 
Q 2728 306 2450 153 
Q 2172 0 1784 0 
Q 1141 0 747 490 
Q 353 981 353 1791 
Q 353 2603 747 3093 
Q 1141 3584 1784 3584 
Q 2172 3584 2450 3431 
Q 2728 3278 2906 2969 
L 2906 3500 
L 3481 3500 
L 3481 434 
z
" transform="scale(0.015625)"/>
       <path id="DejaVuSans-61" d="M 2194 1759 
Q 1497 1759 1228 1600 
Q 959 1441 959 1056 
Q 959 750 1161 570 
Q 1363 391 1709 391 
Q 2188 391 2477 730 
Q 2766 1069 2766 1631 
L 2766 1759 
L 2194 1759 
z
M 3341 1997 
L 3341 0 
L 2766 0 
L 2766 531 
Q 2569 213 2275 61 
Q 1981 -91 1556 -91 
Q 1019 -91 701 211 
Q 384 513 384 1019 
Q 384 1609 779 1909 
Q 1175 2209 1959 2209 
L 2766 2209 
L 2766 2266 
Q 2766 2663 2505 2880 
Q 2244 3097 1772 3097 
Q 1472 3097 1187 3025 
Q 903 2953 641 2809 
L 641 3341 
Q 956 3463 1253 3523 
Q 1550 3584 1831 3584 
Q 2591 3584 2966 3190 
Q 3341 2797 3341 1997 
z
" transform="scale(0.015625)"/>
       <path id="DejaVuSans-72" d="M 2631 2963 
Q 2534 3019 2420 3045 
Q 2306 3072 2169 3072 
Q 1681 3072 1420 2755 
Q 1159 2438 1159 1844 
L 1159 0 
L 581 0 
L 581 3500 
L 1159 3500 
L 1159 2956 
Q 1341 3275 1631 3429 
Q 1922 3584 2338 3584 
Q 2397 3584 2469 3576 
Q 2541 3569 2628 3553 
L 2631 2963 
z
" transform="scale(0.015625)"/>
      </defs>
      <use xlink:href="#DejaVuSans-53"/>
      <use xlink:href="#DejaVuSans-75" x="63.476562"/>
      <use xlink:href="#DejaVuSans-67" x="126.855469"/>
      <use xlink:href="#DejaVuSans-61" x="190.332031"/>
      <use xlink:href="#DejaVuSans-72" x="251.611328"/>
     </g>
    </g>
   </g>
   <g id="matplotlib.axis_2">
    <g id="xtick_7">
     <g id="line2d_7">
      <path d="M 553.5 182.968369 
L 972 907.831631 
" style="fill: none; stroke: #b0b0b0; stroke-opacity: 0.75; stroke-width: 0.8; stroke-linecap: square"/>
     </g>
    </g>
    <g id="xtick_8">
     <g id="line2d_8">
      <path d="M 469.8 327.941021 
L 804.6 907.831631 
" style="fill: none; stroke: #b0b0b0; stroke-opacity: 0.75; stroke-width: 0.8; stroke-linecap: square"/>
     </g>
    </g>
    <g id="xtick_9">
     <g id="line2d_9">
      <path d="M 386.1 472.913674 
L 637.2 907.831631 
" style="fill: none; stroke: #b0b0b0; stroke-opacity: 0.75; stroke-width: 0.8; stroke-linecap: square"/>
     </g>
    </g>
    <g id="xtick_10">
     <g id="line2d_10">
      <path d="M 302.4 617.886326 
L 469.8 907.831631 
" style="fill: none; stroke: #b0b0b0; stroke-opacity: 0.75; stroke-width: 0.8; stroke-linecap: square"/>
     </g>
    </g>
    <g id="xtick_11">
     <g id="line2d_11">
      <path d="M 218.7 762.858979 
L 302.4 907.831631 
" style="fill: none; stroke: #b0b0b0; stroke-opacity: 0.75; stroke-width: 0.8; stroke-linecap: square"/>
     </g>
    </g>
    <g id="xtick_12">
     <g id="line2d_12">
      <path d="M 135 907.831631 
L 135 907.831631 
" style="fill: none; stroke: #b0b0b0; stroke-opacity: 0.75; stroke-width: 0.8; stroke-linecap: square"/>
     </g>
    </g>
    <g id="text_2">
     <!-- Protein -->
     <g transform="translate(116.193349 898.454432) rotate(-300) scale(0.1 -0.1)">
      <defs>
       <path id="DejaVuSans-50" d="M 1259 4147 
L 1259 2394 
L 2053 2394 
Q 2494 2394 2734 2622 
Q 2975 2850 2975 3272 
Q 2975 3691 2734 3919 
Q 2494 4147 2053 4147 
L 1259 4147 
z
M 628 4666 
L 2053 4666 
Q 2838 4666 3239 4311 
Q 3641 3956 3641 3272 
Q 3641 2581 3239 2228 
Q 2838 1875 2053 1875 
L 1259 1875 
L 1259 0 
L 628 0 
L 628 4666 
z
" transform="scale(0.015625)"/>
       <path id="DejaVuSans-6f" d="M 1959 3097 
Q 1497 3097 1228 2736 
Q 959 2375 959 1747 
Q 959 1119 1226 758 
Q 1494 397 1959 397 
Q 2419 397 2687 759 
Q 2956 1122 2956 1747 
Q 2956 2369 2687 2733 
Q 2419 3097 1959 3097 
z
M 1959 3584 
Q 2709 3584 3137 3096 
Q 3566 2609 3566 1747 
Q 3566 888 3137 398 
Q 2709 -91 1959 -91 
Q 1206 -91 779 398 
Q 353 888 353 1747 
Q 353 2609 779 3096 
Q 1206 3584 1959 3584 
z
" transform="scale(0.015625)"/>
       <path id="DejaVuSans-74" d="M 1172 4494 
L 1172 3500 
L 2356 3500 
L 2356 3053 
L 1172 3053 
L 1172 1153 
Q 1172 725 1289 603 
Q 1406 481 1766 481 
L 2356 481 
L 2356 0 
L 1766 0 
Q 1100 0 847 248 
Q 594 497 594 1153 
L 594 3053 
L 172 3053 
L 172 3500 
L 594 3500 
L 594 4494 
L 1172 4494 
z
" transform="scale(0.015625)"/>
       <path id="DejaVuSans-65" d="M 3597 1894 
L 3597 1613 
L 953 1613 
Q 991 1019 1311 708 
Q 1631 397 2203 397 
Q 2534 397 2845 478 
Q 3156 559 3463 722 
L 3463 178 
Q 3153 47 2828 -22 
Q 2503 -91 2169 -91 
Q 1331 -91 842 396 
Q 353 884 353 1716 
Q 353 2575 817 3079 
Q 1281 3584 2069 3584 
Q 2775 3584 3186 3129 
Q 3597 2675 3597 1894 
z
M 3022 2063 
Q 3016 2534 2758 2815 
Q 2500 3097 2075 3097 
Q 1594 3097 1305 2825 
Q 1016 2553 972 2059 
L 3022 2063 
z
" transform="scale(0.015625)"/>
       <path id="DejaVuSans-69" d="M 603 3500 
L 1178 3500 
L 1178 0 
L 603 0 
L 603 3500 
z
M 603 4863 
L 1178 4863 
L 1178 4134 
L 603 4134 
L 603 4863 
z
" transform="scale(0.015625)"/>
       <path id="DejaVuSans-6e" d="M 3513 2113 
L 3513 0 
L 2938 0 
L 2938 2094 
Q 2938 2591 2744 2837 
Q 2550 3084 2163 3084 
Q 1697 3084 1428 2787 
Q 1159 2491 1159 1978 
L 1159 0 
L 581 0 
L 581 3500 
L 1159 3500 
L 1159 2956 
Q 1366 3272 1645 3428 
Q 1925 3584 2291 3584 
Q 2894 3584 3203 3211 
Q 3513 2838 3513 2113 
z
" transform="scale(0.015625)"/>
      </defs>
      <use xlink:href="#DejaVuSans-50"/>
      <use xlink:href="#DejaVuSans-72" x="58.552734"/>
      <use xlink:href="#DejaVuSans-6f" x="97.416016"/>
      <use xlink:href="#DejaVuSans-74" x="158.597656"/>
      <use xlink:href="#DejaVuSans-65" x="197.806641"/>
      <use xlink:href="#DejaVuSans-69" x="259.330078"/>
      <use xlink:href="#DejaVuSans-6e" x="287.113281"/>
     </g>
    </g>
   </g>
   <g id="matplotlib.axis_3">
    <g id="xtick_13">
     <g id="line2d_13">
      <path d="M 135 907.831631 
L 553.5 182.968369 
" style="fill: none; stroke: #b0b0b0; stroke-opacity: 0.75; stroke-width: 0.8; stroke-linecap: square"/>
     </g>
    </g>
    <g id="xtick_14">
     <g id="line2d_14">
      <path d="M 302.4 907.831631 
L 637.2 327.941021 
" style="fill: none; stroke: #b0b0b0; stroke-opacity: 0.75; stroke-width: 0.8; stroke-linecap: square"/>
     </g>
    </g>
    <g id="xtick_15">
     <g id="line2d_15">
      <path d="M 469.8 907.831631 
L 720.9 472.913674 
" style="fill: none; stroke: #b0b0b0; stroke-opacity: 0.75; stroke-width: 0.8; stroke-linecap: square"/>
     </g>
    </g>
    <g id="xtick_16">
     <g id="line2d_16">
      <path d="M 637.2 907.831631 
L 804.6 617.886326 
" style="fill: none; stroke: #b0b0b0; stroke-opacity: 0.75; stroke-width: 0.8; stroke-linecap: square"/>
     </g>
    </g>
    <g id="xtick_17">
     <g id="line2d_17">
      <path d="M 804.6 907.831631 
L 888.3 762.858979 
" style="fill: none; stroke: #b0b0b0; stroke-opacity: 0.75; stroke-width: 0.8; stroke-linecap: square"/>
     </g>
    </g>
    <g id="xtick_18">
     <g id="line2d_18">
      <path d="M 972 907.831631 
L 972 907.831631 
" style="fill: none; stroke: #b0b0b0; stroke-opacity: 0.75; stroke-width: 0.8; stroke-linecap: square"/>
     </g>
    </g>
    <g id="text_3">
     <!-- Fat -->
     <g transform="translate(978.322667 920.077327) rotate(-60) scale(0.1 -0.1)">
      <defs>
       <path id="DejaVuSans-46" d="M 628 4666 
L 3309 4666 
L 3309 4134 
L 1259 4134 
L 1259 2759 
L 3109 2759 
L 3109 2228 
L 1259 2228 
L 1259 0 
L 628 0 
L 628 4666 
z
" transform="scale(0.015625)"/>
      </defs>
      <use xlink:href="#DejaVuSans-46"/>
      <use xlink:href="#DejaVuSans-61" x="48.394531"/>
      <use xlink:href="#DejaVuSans-74" x="109.673828"/>
     </g>
    </g>
   </g>
   <g id="patch_3">
    <path d="M 972 907.831631 
L 135 907.831631 
" style="fill: none; stroke: #000000; stroke-width: 0.8; stroke-linejoin: miter; stroke-linecap: square"/>
   </g>
   <g id="patch_4">
    <path d="M 553.5 182.968369 
L 553.5 182.968369 
" style="fill: none; stroke: #000000; stroke-width: 0.8; stroke-linejoin: miter; stroke-linecap: square"/>
   </g>
   <g id="patch_5">
    <path d="M 553.5 182.968369 
L 972 907.831631 
" style="fill: none; stroke: #000000; stroke-width: 0.8; stroke-linejoin: miter; stroke-linecap: square"/>
   </g>
   <g id="patch_6">
    <path d="M 135 907.831631 
L 135 907.831631 
" style="fill: none; stroke: #000000; stroke-width: 0.8; stroke-linejoin: miter; stroke-linecap: square"/>
   </g>
   <g id="patch_7">
    <path d="M 135 907.831631 
L 553.5 182.968369 
" style="fill: none; stroke: #000000; stroke-width: 0.8; stroke-linejoin: miter; stroke-linecap: square"/>
   </g>
   <g id="patch_8">
    <path d="M 972 907.831631 
L 972 907.831631 
" style="fill: none; stroke: #000000; stroke-width: 0.8; stroke-linejoin: miter; stroke-linecap: square"/>
   </g>
  </g>
 </g>
 <defs>
  <clipPath id="pe2144c98f8">
   <path d="M 553.5 182.968369 
L 553.5 182.968369 
L 135 907.831631 
L 135 907.831631 
L 972 907.831631 
L 972 907.831631 
z
"/>
  </clipPath>
 </defs>
</svg>
