<?xml version="1.0" encoding="utf-8" standalone="no"?>
<!DOCTYPE svg PUBLIC "-//W3C//DTD SVG 1.1//EN"
  "http://www.w3.org/Graphics/SVG/1.1/DTD/svg11.dtd">
<svg xmlns:xlink="http://www.w3.org/1999/xlink" width="873.175192pt" height="760.556869pt" viewBox="0 0 873.175192 760.556869" xmlns="http://www.w3.org/2000/svg" version="1.1">
 <metadata>
  <rdf:RDF xmlns:dc="http://purl.org/dc/elements/1.1/" xmlns:cc="http://creativecommons.org/ns#" xmlns:rdf="http://www.w3.org/1999/02/22-rdf-syntax-ns#">
   <cc:Work>
    <dc:type rdf:resource="http://purl.org/dc/dcmitype/StillImage"/>
    <dc:date>2023-06-26T04:23:24.435650</dc:date>
    <dc:format>image/svg+xml</dc:format>
    <dc:creator>
     <cc:Agent>
      <dc:title>Matplotlib v3.7.1, https://matplotlib.org/</dc:title>
     </cc:Agent>
    </dc:creator>
   </cc:Work>
  </rdf:RDF>
 </metadata>
 <defs>
  <style type="text/css">*{stroke-linejoin: round; stroke-linecap: butt}</style>
 </defs>
 <g id="figure_1">
  <g id="patch_1">
   <path d="M 0 760.556869 
L 873.175192 760.556869 
L 873.175192 0 
L 0 0 
L 0 760.556869 
z
" style="fill: none"/>
  </g>
  <g id="axes_1">
   <g id="patch_2">
    <path d="M 439.107713 13.678125 
L 439.107713 13.678125 
L 20.607713 738.541388 
L 20.607713 738.541388 
L 857.607713 738.541388 
L 857.607713 738.541388 
L 439.107713 13.678125 
z
" style="fill: none"/>
   </g>
   <g id="PathCollection_1">
    <defs>
     <path id="m040f2bec3b" d="M 0 3 
C 0.795609 3 1.55874 2.683901 2.12132 2.12132 
C 2.683901 1.55874 3 0.795609 3 0 
C 3 -0.795609 2.683901 -1.55874 2.12132 -2.12132 
C 1.55874 -2.683901 0.795609 -3 0 -3 
C -0.795609 -3 -1.55874 -2.683901 -2.12132 -2.12132 
C -2.683901 -1.55874 -3 -0.795609 -3 0 
C -3 0.795609 -2.683901 1.55874 -2.12132 2.12132 
C -1.55874 2.683901 -0.795609 3 0 3 
z
" style="stroke: #d3d3d3"/>
    </defs>
    <g clip-path="url(#pf965525e24)">
     <use xlink:href="#m040f2bec3b" x="120.25057" y="565.954897" style="fill: #d3d3d3; stroke: #d3d3d3"/>
     <use xlink:href="#m040f2bec3b" x="284.107713" y="604.30745" style="fill: #d3d3d3; stroke: #d3d3d3"/>
     <use xlink:href="#m040f2bec3b" x="334.482713" y="609.10152" style="fill: #d3d3d3; stroke: #d3d3d3"/>
     <use xlink:href="#m040f2bec3b" x="284.107713" y="604.30745" style="fill: #d3d3d3; stroke: #d3d3d3"/>
     <use xlink:href="#m040f2bec3b" x="374.723098" y="348.2304" style="fill: #d3d3d3; stroke: #d3d3d3"/>
     <use xlink:href="#m040f2bec3b" x="229.857713" y="376.109756" style="fill: #d3d3d3; stroke: #d3d3d3"/>
     <use xlink:href="#m040f2bec3b" x="107.795213" y="587.528208" style="fill: #d3d3d3; stroke: #d3d3d3"/>
     <use xlink:href="#m040f2bec3b" x="120.25057" y="565.954897" style="fill: #d3d3d3; stroke: #d3d3d3"/>
     <use xlink:href="#m040f2bec3b" x="459.036285" y="462.403002" style="fill: #d3d3d3; stroke: #d3d3d3"/>
     <use xlink:href="#m040f2bec3b" x="134.744077" y="540.851407" style="fill: #d3d3d3; stroke: #d3d3d3"/>
     <use xlink:href="#m040f2bec3b" x="439.107713" y="525.346311" style="fill: #d3d3d3; stroke: #d3d3d3"/>
     <use xlink:href="#m040f2bec3b" x="111.585974" y="580.962418" style="fill: #d3d3d3; stroke: #d3d3d3"/>
     <use xlink:href="#m040f2bec3b" x="179.349092" y="463.593254" style="fill: #d3d3d3; stroke: #d3d3d3"/>
     <use xlink:href="#m040f2bec3b" x="678.25057" y="634.989493" style="fill: #d3d3d3; stroke: #d3d3d3"/>
     <use xlink:href="#m040f2bec3b" x="120.25057" y="565.954897" style="fill: #d3d3d3; stroke: #d3d3d3"/>
     <use xlink:href="#m040f2bec3b" x="398.607713" y="551.479901" style="fill: #d3d3d3; stroke: #d3d3d3"/>
     <use xlink:href="#m040f2bec3b" x="247.295213" y="345.907121" style="fill: #d3d3d3; stroke: #d3d3d3"/>
     <use xlink:href="#m040f2bec3b" x="374.723098" y="236.712975" style="fill: #d3d3d3; stroke: #d3d3d3"/>
     <use xlink:href="#m040f2bec3b" x="307.579142" y="365.754567" style="fill: #d3d3d3; stroke: #d3d3d3"/>
     <use xlink:href="#m040f2bec3b" x="419.179142" y="669.506791" style="fill: #d3d3d3; stroke: #d3d3d3"/>
     <use xlink:href="#m040f2bec3b" x="217.54889" y="596.411336" style="fill: #d3d3d3; stroke: #d3d3d3"/>
     <use xlink:href="#m040f2bec3b" x="229.857713" y="376.109756" style="fill: #d3d3d3; stroke: #d3d3d3"/>
     <use xlink:href="#m040f2bec3b" x="285.657713" y="617.730844" style="fill: #d3d3d3; stroke: #d3d3d3"/>
     <use xlink:href="#m040f2bec3b" x="439.107713" y="471.486502" style="fill: #d3d3d3; stroke: #d3d3d3"/>
     <use xlink:href="#m040f2bec3b" x="480.957713" y="448.596083" style="fill: #d3d3d3; stroke: #d3d3d3"/>
     <use xlink:href="#m040f2bec3b" x="477.153168" y="474.954747" style="fill: #d3d3d3; stroke: #d3d3d3"/>
     <use xlink:href="#m040f2bec3b" x="198.692819" y="584.315162" style="fill: #d3d3d3; stroke: #d3d3d3"/>
     <use xlink:href="#m040f2bec3b" x="411.207713" y="351.947648" style="fill: #d3d3d3; stroke: #d3d3d3"/>
     <use xlink:href="#m040f2bec3b" x="247.295213" y="345.907121" style="fill: #d3d3d3; stroke: #d3d3d3"/>
     <use xlink:href="#m040f2bec3b" x="349.429142" y="272.557862" style="fill: #d3d3d3; stroke: #d3d3d3"/>
     <use xlink:href="#m040f2bec3b" x="171.267713" y="477.590613" style="fill: #d3d3d3; stroke: #d3d3d3"/>
     <use xlink:href="#m040f2bec3b" x="480.957713" y="448.596083" style="fill: #d3d3d3; stroke: #d3d3d3"/>
     <use xlink:href="#m040f2bec3b" x="120.25057" y="565.954897" style="fill: #d3d3d3; stroke: #d3d3d3"/>
     <use xlink:href="#m040f2bec3b" x="346.107713" y="604.30745" style="fill: #d3d3d3; stroke: #d3d3d3"/>
     <use xlink:href="#m040f2bec3b" x="403.236285" y="365.754567" style="fill: #d3d3d3; stroke: #d3d3d3"/>
     <use xlink:href="#m040f2bec3b" x="360.638963" y="330.805803" style="fill: #d3d3d3; stroke: #d3d3d3"/>
     <use xlink:href="#m040f2bec3b" x="342.53079" y="403.989113" style="fill: #d3d3d3; stroke: #d3d3d3"/>
     <use xlink:href="#m040f2bec3b" x="283.195948" y="425.855275" style="fill: #d3d3d3; stroke: #d3d3d3"/>
     <use xlink:href="#m040f2bec3b" x="366.325104" y="265.804477" style="fill: #d3d3d3; stroke: #d3d3d3"/>
     <use xlink:href="#m040f2bec3b" x="284.107713" y="604.30745" style="fill: #d3d3d3; stroke: #d3d3d3"/>
     <use xlink:href="#m040f2bec3b" x="358.969415" y="245.017464" style="fill: #d3d3d3; stroke: #d3d3d3"/>
     <use xlink:href="#m040f2bec3b" x="439.107713" y="324.333809" style="fill: #d3d3d3; stroke: #d3d3d3"/>
     <use xlink:href="#m040f2bec3b" x="446.082713" y="315.704485" style="fill: #d3d3d3; stroke: #d3d3d3"/>
     <use xlink:href="#m040f2bec3b" x="262.050021" y="320.351044" style="fill: #d3d3d3; stroke: #d3d3d3"/>
     <use xlink:href="#m040f2bec3b" x="454.054142" y="298.445835" style="fill: #d3d3d3; stroke: #d3d3d3"/>
     <use xlink:href="#m040f2bec3b" x="401.062259" y="474.954747" style="fill: #d3d3d3; stroke: #d3d3d3"/>
     <use xlink:href="#m040f2bec3b" x="424.161285" y="298.445835" style="fill: #d3d3d3; stroke: #d3d3d3"/>
     <use xlink:href="#m040f2bec3b" x="345.560654" y="260.984415" style="fill: #d3d3d3; stroke: #d3d3d3"/>
     <use xlink:href="#m040f2bec3b" x="310.995468" y="501.851343" style="fill: #d3d3d3; stroke: #d3d3d3"/>
     <use xlink:href="#m040f2bec3b" x="307.579142" y="490.016841" style="fill: #d3d3d3; stroke: #d3d3d3"/>
     <use xlink:href="#m040f2bec3b" x="439.107713" y="335.839575" style="fill: #d3d3d3; stroke: #d3d3d3"/>
     <use xlink:href="#m040f2bec3b" x="403.236285" y="365.754567" style="fill: #d3d3d3; stroke: #d3d3d3"/>
     <use xlink:href="#m040f2bec3b" x="282.170213" y="466.717664" style="fill: #d3d3d3; stroke: #d3d3d3"/>
     <use xlink:href="#m040f2bec3b" x="283.195948" y="425.855275" style="fill: #d3d3d3; stroke: #d3d3d3"/>
     <use xlink:href="#m040f2bec3b" x="254.967713" y="332.617961" style="fill: #d3d3d3; stroke: #d3d3d3"/>
     <use xlink:href="#m040f2bec3b" x="197.665405" y="431.868469" style="fill: #d3d3d3; stroke: #d3d3d3"/>
     <use xlink:href="#m040f2bec3b" x="439.107713" y="531.437599" style="fill: #d3d3d3; stroke: #d3d3d3"/>
     <use xlink:href="#m040f2bec3b" x="282.170213" y="466.717664" style="fill: #d3d3d3; stroke: #d3d3d3"/>
     <use xlink:href="#m040f2bec3b" x="310.995468" y="501.851343" style="fill: #d3d3d3; stroke: #d3d3d3"/>
     <use xlink:href="#m040f2bec3b" x="197.665405" y="431.868469" style="fill: #d3d3d3; stroke: #d3d3d3"/>
     <use xlink:href="#m040f2bec3b" x="197.665405" y="431.868469" style="fill: #d3d3d3; stroke: #d3d3d3"/>
     <use xlink:href="#m040f2bec3b" x="439.107713" y="565.954897" style="fill: #d3d3d3; stroke: #d3d3d3"/>
     <use xlink:href="#m040f2bec3b" x="307.579142" y="365.754567" style="fill: #d3d3d3; stroke: #d3d3d3"/>
     <use xlink:href="#m040f2bec3b" x="527.88044" y="343.161426" style="fill: #d3d3d3; stroke: #d3d3d3"/>
     <use xlink:href="#m040f2bec3b" x="452.185838" y="534.673595" style="fill: #d3d3d3; stroke: #d3d3d3"/>
     <use xlink:href="#m040f2bec3b" x="237.607713" y="470.073513" style="fill: #d3d3d3; stroke: #d3d3d3"/>
     <use xlink:href="#m040f2bec3b" x="360.638963" y="330.805803" style="fill: #d3d3d3; stroke: #d3d3d3"/>
     <use xlink:href="#m040f2bec3b" x="439.107713" y="324.333809" style="fill: #d3d3d3; stroke: #d3d3d3"/>
     <use xlink:href="#m040f2bec3b" x="439.107713" y="314.564762" style="fill: #d3d3d3; stroke: #d3d3d3"/>
     <use xlink:href="#m040f2bec3b" x="439.107713" y="324.333809" style="fill: #d3d3d3; stroke: #d3d3d3"/>
     <use xlink:href="#m040f2bec3b" x="247.295213" y="345.907121" style="fill: #d3d3d3; stroke: #d3d3d3"/>
     <use xlink:href="#m040f2bec3b" x="280.366334" y="488.588539" style="fill: #d3d3d3; stroke: #d3d3d3"/>
     <use xlink:href="#m040f2bec3b" x="530.654588" y="353.45778" style="fill: #d3d3d3; stroke: #d3d3d3"/>
     <use xlink:href="#m040f2bec3b" x="530.654588" y="353.45778" style="fill: #d3d3d3; stroke: #d3d3d3"/>
     <use xlink:href="#m040f2bec3b" x="237.607713" y="470.073513" style="fill: #d3d3d3; stroke: #d3d3d3"/>
     <use xlink:href="#m040f2bec3b" x="452.607713" y="317.653042" style="fill: #d3d3d3; stroke: #d3d3d3"/>
     <use xlink:href="#m040f2bec3b" x="358.969415" y="245.017464" style="fill: #d3d3d3; stroke: #d3d3d3"/>
     <use xlink:href="#m040f2bec3b" x="342.53079" y="180.954263" style="fill: #d3d3d3; stroke: #d3d3d3"/>
     <use xlink:href="#m040f2bec3b" x="439.107713" y="292.471688" style="fill: #d3d3d3; stroke: #d3d3d3"/>
     <use xlink:href="#m040f2bec3b" x="684.435299" y="538.579109" style="fill: #d3d3d3; stroke: #d3d3d3"/>
     <use xlink:href="#m040f2bec3b" x="454.607713" y="523.767088" style="fill: #d3d3d3; stroke: #d3d3d3"/>
     <use xlink:href="#m040f2bec3b" x="188.007713" y="448.596083" style="fill: #d3d3d3; stroke: #d3d3d3"/>
     <use xlink:href="#m040f2bec3b" x="439.107713" y="354.790249" style="fill: #d3d3d3; stroke: #d3d3d3"/>
     <use xlink:href="#m040f2bec3b" x="255.555082" y="458.769602" style="fill: #d3d3d3; stroke: #d3d3d3"/>
     <use xlink:href="#m040f2bec3b" x="498.893427" y="186.264616" style="fill: #d3d3d3; stroke: #d3d3d3"/>
     <use xlink:href="#m040f2bec3b" x="439.107713" y="320.351044" style="fill: #d3d3d3; stroke: #d3d3d3"/>
     <use xlink:href="#m040f2bec3b" x="454.607713" y="308.992788" style="fill: #d3d3d3; stroke: #d3d3d3"/>
     <use xlink:href="#m040f2bec3b" x="371.242848" y="366.314307" style="fill: #d3d3d3; stroke: #d3d3d3"/>
     <use xlink:href="#m040f2bec3b" x="417.081397" y="509.6372" style="fill: #d3d3d3; stroke: #d3d3d3"/>
     <use xlink:href="#m040f2bec3b" x="439.107713" y="314.564762" style="fill: #d3d3d3; stroke: #d3d3d3"/>
     <use xlink:href="#m040f2bec3b" x="265.935299" y="463.593254" style="fill: #d3d3d3; stroke: #d3d3d3"/>
     <use xlink:href="#m040f2bec3b" x="451.064856" y="282.913051" style="fill: #d3d3d3; stroke: #d3d3d3"/>
     <use xlink:href="#m040f2bec3b" x="439.107713" y="427.885704" style="fill: #d3d3d3; stroke: #d3d3d3"/>
     <use xlink:href="#m040f2bec3b" x="380.982713" y="355.974666" style="fill: #d3d3d3; stroke: #d3d3d3"/>
     <use xlink:href="#m040f2bec3b" x="439.107713" y="324.333809" style="fill: #d3d3d3; stroke: #d3d3d3"/>
     <use xlink:href="#m040f2bec3b" x="324.971349" y="431.02364" style="fill: #d3d3d3; stroke: #d3d3d3"/>
     <use xlink:href="#m040f2bec3b" x="439.107713" y="531.437599" style="fill: #d3d3d3; stroke: #d3d3d3"/>
     <use xlink:href="#m040f2bec3b" x="286.925895" y="277.264766" style="fill: #d3d3d3; stroke: #d3d3d3"/>
     <use xlink:href="#m040f2bec3b" x="453.057713" y="279.461321" style="fill: #d3d3d3; stroke: #d3d3d3"/>
     <use xlink:href="#m040f2bec3b" x="439.107713" y="531.437599" style="fill: #d3d3d3; stroke: #d3d3d3"/>
     <use xlink:href="#m040f2bec3b" x="403.236285" y="365.754567" style="fill: #d3d3d3; stroke: #d3d3d3"/>
     <use xlink:href="#m040f2bec3b" x="452.607713" y="224.122298" style="fill: #d3d3d3; stroke: #d3d3d3"/>
     <use xlink:href="#m040f2bec3b" x="496.175895" y="178.419776" style="fill: #d3d3d3; stroke: #d3d3d3"/>
     <use xlink:href="#m040f2bec3b" x="439.107713" y="354.790249" style="fill: #d3d3d3; stroke: #d3d3d3"/>
     <use xlink:href="#m040f2bec3b" x="385.107713" y="294.270356" style="fill: #d3d3d3; stroke: #d3d3d3"/>
     <use xlink:href="#m040f2bec3b" x="454.900166" y="341.918093" style="fill: #d3d3d3; stroke: #d3d3d3"/>
     <use xlink:href="#m040f2bec3b" x="299.607713" y="255.299213" style="fill: #d3d3d3; stroke: #d3d3d3"/>
     <use xlink:href="#m040f2bec3b" x="196.818239" y="662.239992" style="fill: #d3d3d3; stroke: #d3d3d3"/>
     <use xlink:href="#m040f2bec3b" x="467.007713" y="545.244518" style="fill: #d3d3d3; stroke: #d3d3d3"/>
     <use xlink:href="#m040f2bec3b" x="439.107713" y="362.686363" style="fill: #d3d3d3; stroke: #d3d3d3"/>
     <use xlink:href="#m040f2bec3b" x="498.893427" y="186.264616" style="fill: #d3d3d3; stroke: #d3d3d3"/>
     <use xlink:href="#m040f2bec3b" x="409.910039" y="333.966544" style="fill: #d3d3d3; stroke: #d3d3d3"/>
     <use xlink:href="#m040f2bec3b" x="670.004265" y="513.583824" style="fill: #d3d3d3; stroke: #d3d3d3"/>
     <use xlink:href="#m040f2bec3b" x="288.447713" y="390.607022" style="fill: #d3d3d3; stroke: #d3d3d3"/>
     <use xlink:href="#m040f2bec3b" x="426.425895" y="343.161426" style="fill: #d3d3d3; stroke: #d3d3d3"/>
     <use xlink:href="#m040f2bec3b" x="306.949818" y="242.582313" style="fill: #d3d3d3; stroke: #d3d3d3"/>
     <use xlink:href="#m040f2bec3b" x="425.607713" y="457.949157" style="fill: #d3d3d3; stroke: #d3d3d3"/>
     <use xlink:href="#m040f2bec3b" x="245.953867" y="348.2304" style="fill: #d3d3d3; stroke: #d3d3d3"/>
     <use xlink:href="#m040f2bec3b" x="439.107713" y="525.346311" style="fill: #d3d3d3; stroke: #d3d3d3"/>
     <use xlink:href="#m040f2bec3b" x="374.723098" y="236.712975" style="fill: #d3d3d3; stroke: #d3d3d3"/>
     <use xlink:href="#m040f2bec3b" x="385.453867" y="366.816638" style="fill: #d3d3d3; stroke: #d3d3d3"/>
     <use xlink:href="#m040f2bec3b" x="384.520757" y="486.415036" style="fill: #d3d3d3; stroke: #d3d3d3"/>
     <use xlink:href="#m040f2bec3b" x="504.207713" y="190.866923" style="fill: #d3d3d3; stroke: #d3d3d3"/>
     <use xlink:href="#m040f2bec3b" x="439.107713" y="365.12698" style="fill: #d3d3d3; stroke: #d3d3d3"/>
     <use xlink:href="#m040f2bec3b" x="426.79889" y="376.109756" style="fill: #d3d3d3; stroke: #d3d3d3"/>
     <use xlink:href="#m040f2bec3b" x="382.553659" y="346.723408" style="fill: #d3d3d3; stroke: #d3d3d3"/>
     <use xlink:href="#m040f2bec3b" x="439.107713" y="365.12698" style="fill: #d3d3d3; stroke: #d3d3d3"/>
     <use xlink:href="#m040f2bec3b" x="359.932037" y="268.359812" style="fill: #d3d3d3; stroke: #d3d3d3"/>
     <use xlink:href="#m040f2bec3b" x="439.107713" y="303.62343" style="fill: #d3d3d3; stroke: #d3d3d3"/>
     <use xlink:href="#m040f2bec3b" x="450.418524" y="268.359812" style="fill: #d3d3d3; stroke: #d3d3d3"/>
     <use xlink:href="#m040f2bec3b" x="172.789531" y="474.954747" style="fill: #d3d3d3; stroke: #d3d3d3"/>
     <use xlink:href="#m040f2bec3b" x="508.857713" y="327.785539" style="fill: #d3d3d3; stroke: #d3d3d3"/>
     <use xlink:href="#m040f2bec3b" x="306.949818" y="242.582313" style="fill: #d3d3d3; stroke: #d3d3d3"/>
     <use xlink:href="#m040f2bec3b" x="197.665405" y="431.868469" style="fill: #d3d3d3; stroke: #d3d3d3"/>
     <use xlink:href="#m040f2bec3b" x="283.195948" y="425.855275" style="fill: #d3d3d3; stroke: #d3d3d3"/>
     <use xlink:href="#m040f2bec3b" x="426.79889" y="333.470741" style="fill: #d3d3d3; stroke: #d3d3d3"/>
     <use xlink:href="#m040f2bec3b" x="460.032713" y="484.839246" style="fill: #d3d3d3; stroke: #d3d3d3"/>
     <use xlink:href="#m040f2bec3b" x="90.357713" y="617.730844" style="fill: #d3d3d3; stroke: #d3d3d3"/>
     <use xlink:href="#m040f2bec3b" x="319.536285" y="565.954897" style="fill: #d3d3d3; stroke: #d3d3d3"/>
     <use xlink:href="#m040f2bec3b" x="470.107713" y="335.839575" style="fill: #d3d3d3; stroke: #d3d3d3"/>
     <use xlink:href="#m040f2bec3b" x="401.062259" y="474.954747" style="fill: #d3d3d3; stroke: #d3d3d3"/>
     <use xlink:href="#m040f2bec3b" x="171.267713" y="477.590613" style="fill: #d3d3d3; stroke: #d3d3d3"/>
     <use xlink:href="#m040f2bec3b" x="439.107713" y="303.62343" style="fill: #d3d3d3; stroke: #d3d3d3"/>
     <use xlink:href="#m040f2bec3b" x="104.307713" y="593.568735" style="fill: #d3d3d3; stroke: #d3d3d3"/>
     <use xlink:href="#m040f2bec3b" x="426.425895" y="343.161426" style="fill: #d3d3d3; stroke: #d3d3d3"/>
     <use xlink:href="#m040f2bec3b" x="419.179142" y="669.506791" style="fill: #d3d3d3; stroke: #d3d3d3"/>
     <use xlink:href="#m040f2bec3b" x="111.585974" y="580.962418" style="fill: #d3d3d3; stroke: #d3d3d3"/>
     <use xlink:href="#m040f2bec3b" x="530.085974" y="360.351859" style="fill: #d3d3d3; stroke: #d3d3d3"/>
     <use xlink:href="#m040f2bec3b" x="229.857713" y="376.109756" style="fill: #d3d3d3; stroke: #d3d3d3"/>
     <use xlink:href="#m040f2bec3b" x="452.607713" y="224.122298" style="fill: #d3d3d3; stroke: #d3d3d3"/>
     <use xlink:href="#m040f2bec3b" x="415.857713" y="376.109756" style="fill: #d3d3d3; stroke: #d3d3d3"/>
     <use xlink:href="#m040f2bec3b" x="199.964856" y="427.885704" style="fill: #d3d3d3; stroke: #d3d3d3"/>
     <use xlink:href="#m040f2bec3b" x="90.357713" y="617.730844" style="fill: #d3d3d3; stroke: #d3d3d3"/>
     <use xlink:href="#m040f2bec3b" x="283.195948" y="425.855275" style="fill: #d3d3d3; stroke: #d3d3d3"/>
     <use xlink:href="#m040f2bec3b" x="111.585974" y="580.962418" style="fill: #d3d3d3; stroke: #d3d3d3"/>
     <use xlink:href="#m040f2bec3b" x="328.976134" y="433.335804" style="fill: #d3d3d3; stroke: #d3d3d3"/>
     <use xlink:href="#m040f2bec3b" x="439.107713" y="292.471688" style="fill: #d3d3d3; stroke: #d3d3d3"/>
     <use xlink:href="#m040f2bec3b" x="385.453867" y="218.126738" style="fill: #d3d3d3; stroke: #d3d3d3"/>
     <use xlink:href="#m040f2bec3b" x="423.607713" y="470.073513" style="fill: #d3d3d3; stroke: #d3d3d3"/>
     <use xlink:href="#m040f2bec3b" x="613.482713" y="436.515028" style="fill: #d3d3d3; stroke: #d3d3d3"/>
     <use xlink:href="#m040f2bec3b" x="422.367713" y="448.596083" style="fill: #d3d3d3; stroke: #d3d3d3"/>
     <use xlink:href="#m040f2bec3b" x="360.638963" y="330.805803" style="fill: #d3d3d3; stroke: #d3d3d3"/>
     <use xlink:href="#m040f2bec3b" x="329.9338" y="517.93083" style="fill: #d3d3d3; stroke: #d3d3d3"/>
     <use xlink:href="#m040f2bec3b" x="718.107713" y="496.9203" style="fill: #d3d3d3; stroke: #d3d3d3"/>
     <use xlink:href="#m040f2bec3b" x="90.357713" y="617.730844" style="fill: #d3d3d3; stroke: #d3d3d3"/>
     <use xlink:href="#m040f2bec3b" x="90.357713" y="617.730844" style="fill: #d3d3d3; stroke: #d3d3d3"/>
     <use xlink:href="#m040f2bec3b" x="386.13303" y="215.538781" style="fill: #d3d3d3; stroke: #d3d3d3"/>
     <use xlink:href="#m040f2bec3b" x="125.232713" y="557.325572" style="fill: #d3d3d3; stroke: #d3d3d3"/>
     <use xlink:href="#m040f2bec3b" x="324.971349" y="343.161426" style="fill: #d3d3d3; stroke: #d3d3d3"/>
     <use xlink:href="#m040f2bec3b" x="401.062259" y="474.954747" style="fill: #d3d3d3; stroke: #d3d3d3"/>
     <use xlink:href="#m040f2bec3b" x="362.015608" y="223.506964" style="fill: #d3d3d3; stroke: #d3d3d3"/>
     <use xlink:href="#m040f2bec3b" x="439.107713" y="496.9203" style="fill: #d3d3d3; stroke: #d3d3d3"/>
     <use xlink:href="#m040f2bec3b" x="376.332713" y="267.380267" style="fill: #d3d3d3; stroke: #d3d3d3"/>
     <use xlink:href="#m040f2bec3b" x="439.107713" y="459.747825" style="fill: #d3d3d3; stroke: #d3d3d3"/>
     <use xlink:href="#m040f2bec3b" x="373.717088" y="217.545918" style="fill: #d3d3d3; stroke: #d3d3d3"/>
     <use xlink:href="#m040f2bec3b" x="340.637125" y="184.234187" style="fill: #d3d3d3; stroke: #d3d3d3"/>
     <use xlink:href="#m040f2bec3b" x="528.786285" y="427.885704" style="fill: #d3d3d3; stroke: #d3d3d3"/>
     <use xlink:href="#m040f2bec3b" x="373.717088" y="217.545918" style="fill: #d3d3d3; stroke: #d3d3d3"/>
     <use xlink:href="#m040f2bec3b" x="439.107713" y="262.202672" style="fill: #d3d3d3; stroke: #d3d3d3"/>
     <use xlink:href="#m040f2bec3b" x="361.082289" y="271.680303" style="fill: #d3d3d3; stroke: #d3d3d3"/>
     <use xlink:href="#m040f2bec3b" x="373.717088" y="217.545918" style="fill: #d3d3d3; stroke: #d3d3d3"/>
     <use xlink:href="#m040f2bec3b" x="332.049574" y="367.681114" style="fill: #d3d3d3; stroke: #d3d3d3"/>
     <use xlink:href="#m040f2bec3b" x="361.082289" y="271.680303" style="fill: #d3d3d3; stroke: #d3d3d3"/>
     <use xlink:href="#m040f2bec3b" x="334.482713" y="412.35292" style="fill: #d3d3d3; stroke: #d3d3d3"/>
     <use xlink:href="#m040f2bec3b" x="439.107713" y="262.202672" style="fill: #d3d3d3; stroke: #d3d3d3"/>
     <use xlink:href="#m040f2bec3b" x="439.107713" y="262.202672" style="fill: #d3d3d3; stroke: #d3d3d3"/>
     <use xlink:href="#m040f2bec3b" x="415.857713" y="376.109756" style="fill: #d3d3d3; stroke: #d3d3d3"/>
     <use xlink:href="#m040f2bec3b" x="359.393427" y="324.333809" style="fill: #d3d3d3; stroke: #d3d3d3"/>
     <use xlink:href="#m040f2bec3b" x="532.107713" y="443.226725" style="fill: #d3d3d3; stroke: #d3d3d3"/>
     <use xlink:href="#m040f2bec3b" x="535.684636" y="459.747825" style="fill: #d3d3d3; stroke: #d3d3d3"/>
     <use xlink:href="#m040f2bec3b" x="662.307713" y="496.9203" style="fill: #d3d3d3; stroke: #d3d3d3"/>
     <use xlink:href="#m040f2bec3b" x="220.759887" y="580.962418" style="fill: #d3d3d3; stroke: #d3d3d3"/>
     <use xlink:href="#m040f2bec3b" x="439.107713" y="262.202672" style="fill: #d3d3d3; stroke: #d3d3d3"/>
     <use xlink:href="#m040f2bec3b" x="254.967713" y="332.617961" style="fill: #d3d3d3; stroke: #d3d3d3"/>
     <use xlink:href="#m040f2bec3b" x="254.967713" y="332.617961" style="fill: #d3d3d3; stroke: #d3d3d3"/>
     <use xlink:href="#m040f2bec3b" x="336.197877" y="310.753233" style="fill: #d3d3d3; stroke: #d3d3d3"/>
     <use xlink:href="#m040f2bec3b" x="334.482713" y="315.704485" style="fill: #d3d3d3; stroke: #d3d3d3"/>
     <use xlink:href="#m040f2bec3b" x="226.825104" y="486.415036" style="fill: #d3d3d3; stroke: #d3d3d3"/>
     <use xlink:href="#m040f2bec3b" x="104.307713" y="593.568735" style="fill: #d3d3d3; stroke: #d3d3d3"/>
     <use xlink:href="#m040f2bec3b" x="226.825104" y="486.415036" style="fill: #d3d3d3; stroke: #d3d3d3"/>
     <use xlink:href="#m040f2bec3b" x="324.971349" y="343.161426" style="fill: #d3d3d3; stroke: #d3d3d3"/>
     <use xlink:href="#m040f2bec3b" x="411.207713" y="448.596083" style="fill: #d3d3d3; stroke: #d3d3d3"/>
     <use xlink:href="#m040f2bec3b" x="305.948622" y="376.109756" style="fill: #d3d3d3; stroke: #d3d3d3"/>
     <use xlink:href="#m040f2bec3b" x="295.033943" y="477.115293" style="fill: #d3d3d3; stroke: #d3d3d3"/>
     <use xlink:href="#m040f2bec3b" x="376.332713" y="267.380267" style="fill: #d3d3d3; stroke: #d3d3d3"/>
     <use xlink:href="#m040f2bec3b" x="352.521506" y="613.564963" style="fill: #d3d3d3; stroke: #d3d3d3"/>
     <use xlink:href="#m040f2bec3b" x="225.9096" y="574.421404" style="fill: #d3d3d3; stroke: #d3d3d3"/>
     <use xlink:href="#m040f2bec3b" x="339.989292" y="337.959058" style="fill: #d3d3d3; stroke: #d3d3d3"/>
     <use xlink:href="#m040f2bec3b" x="353.261559" y="311.057925" style="fill: #d3d3d3; stroke: #d3d3d3"/>
     <use xlink:href="#m040f2bec3b" x="342.53079" y="329.644163" style="fill: #d3d3d3; stroke: #d3d3d3"/>
     <use xlink:href="#m040f2bec3b" x="334.482713" y="315.704485" style="fill: #d3d3d3; stroke: #d3d3d3"/>
     <use xlink:href="#m040f2bec3b" x="374.723098" y="459.747825" style="fill: #d3d3d3; stroke: #d3d3d3"/>
     <use xlink:href="#m040f2bec3b" x="403.236285" y="365.754567" style="fill: #d3d3d3; stroke: #d3d3d3"/>
     <use xlink:href="#m040f2bec3b" x="377.107713" y="496.9203" style="fill: #d3d3d3; stroke: #d3d3d3"/>
     <use xlink:href="#m040f2bec3b" x="424.161285" y="505.549625" style="fill: #d3d3d3; stroke: #d3d3d3"/>
     <use xlink:href="#m040f2bec3b" x="503.492328" y="376.109756" style="fill: #d3d3d3; stroke: #d3d3d3"/>
     <use xlink:href="#m040f2bec3b" x="310.338482" y="571.26525" style="fill: #d3d3d3; stroke: #d3d3d3"/>
     <use xlink:href="#m040f2bec3b" x="408.107713" y="496.9203" style="fill: #d3d3d3; stroke: #d3d3d3"/>
     <use xlink:href="#m040f2bec3b" x="439.107713" y="298.445835" style="fill: #d3d3d3; stroke: #d3d3d3"/>
     <use xlink:href="#m040f2bec3b" x="366.325104" y="265.804477" style="fill: #d3d3d3; stroke: #d3d3d3"/>
     <use xlink:href="#m040f2bec3b" x="225.207713" y="545.244518" style="fill: #d3d3d3; stroke: #d3d3d3"/>
     <use xlink:href="#m040f2bec3b" x="415.857713" y="376.109756" style="fill: #d3d3d3; stroke: #d3d3d3"/>
     <use xlink:href="#m040f2bec3b" x="415.857713" y="376.109756" style="fill: #d3d3d3; stroke: #d3d3d3"/>
     <use xlink:href="#m040f2bec3b" x="411.207713" y="351.947648" style="fill: #d3d3d3; stroke: #d3d3d3"/>
     <use xlink:href="#m040f2bec3b" x="352.521506" y="613.564963" style="fill: #d3d3d3; stroke: #d3d3d3"/>
     <use xlink:href="#m040f2bec3b" x="217.54889" y="596.411336" style="fill: #d3d3d3; stroke: #d3d3d3"/>
     <use xlink:href="#m040f2bec3b" x="111.585974" y="580.962418" style="fill: #d3d3d3; stroke: #d3d3d3"/>
     <use xlink:href="#m040f2bec3b" x="369.357713" y="255.299213" style="fill: #d3d3d3; stroke: #d3d3d3"/>
     <use xlink:href="#m040f2bec3b" x="279.679142" y="427.885704" style="fill: #d3d3d3; stroke: #d3d3d3"/>
     <use xlink:href="#m040f2bec3b" x="439.107713" y="565.954897" style="fill: #d3d3d3; stroke: #d3d3d3"/>
     <use xlink:href="#m040f2bec3b" x="403.236285" y="365.754567" style="fill: #d3d3d3; stroke: #d3d3d3"/>
     <use xlink:href="#m040f2bec3b" x="554.555989" y="313.621544" style="fill: #d3d3d3; stroke: #d3d3d3"/>
     <use xlink:href="#m040f2bec3b" x="358.626944" y="710.662032" style="fill: #d3d3d3; stroke: #d3d3d3"/>
     <use xlink:href="#m040f2bec3b" x="553.244077" y="277.264766" style="fill: #d3d3d3; stroke: #d3d3d3"/>
    </g>
   </g>
   <g id="PathCollection_2">
    <defs>
     <path id="mb765f09ffc" d="M 0 3 
C 0.795609 3 1.55874 2.683901 2.12132 2.12132 
C 2.683901 1.55874 3 0.795609 3 0 
C 3 -0.795609 2.683901 -1.55874 2.12132 -2.12132 
C 1.55874 -2.683901 0.795609 -3 0 -3 
C -0.795609 -3 -1.55874 -2.683901 -2.12132 -2.12132 
C -2.683901 -1.55874 -3 -0.795609 -3 0 
C -3 0.795609 -2.683901 1.55874 -2.12132 2.12132 
C -1.55874 2.683901 -0.795609 3 0 3 
z
" style="stroke: #1f77b4"/>
    </defs>
    <g clip-path="url(#pf965525e24)">
     <use xlink:href="#mb765f09ffc" x="439.107713" y="324.333809" style="fill: #1f77b4; stroke: #1f77b4"/>
     <use xlink:href="#mb765f09ffc" x="342.53079" y="180.954263" style="fill: #1f77b4; stroke: #1f77b4"/>
     <use xlink:href="#mb765f09ffc" x="286.925895" y="277.264766" style="fill: #1f77b4; stroke: #1f77b4"/>
     <use xlink:href="#mb765f09ffc" x="439.107713" y="354.790249" style="fill: #1f77b4; stroke: #1f77b4"/>
     <use xlink:href="#mb765f09ffc" x="299.607713" y="255.299213" style="fill: #1f77b4; stroke: #1f77b4"/>
     <use xlink:href="#mb765f09ffc" x="374.723098" y="236.712975" style="fill: #1f77b4; stroke: #1f77b4"/>
     <use xlink:href="#mb765f09ffc" x="439.107713" y="365.12698" style="fill: #1f77b4; stroke: #1f77b4"/>
     <use xlink:href="#mb765f09ffc" x="359.932037" y="268.359812" style="fill: #1f77b4; stroke: #1f77b4"/>
     <use xlink:href="#mb765f09ffc" x="104.307713" y="593.568735" style="fill: #1f77b4; stroke: #1f77b4"/>
    </g>
   </g>
   <g id="PathCollection_3">
    <defs>
     <path id="md2c1e84784" d="M 0 3 
C 0.795609 3 1.55874 2.683901 2.12132 2.12132 
C 2.683901 1.55874 3 0.795609 3 0 
C 3 -0.795609 2.683901 -1.55874 2.12132 -2.12132 
C 1.55874 -2.683901 0.795609 -3 0 -3 
C -0.795609 -3 -1.55874 -2.683901 -2.12132 -2.12132 
C -2.683901 -1.55874 -3 -0.795609 -3 0 
C -3 0.795609 -2.683901 1.55874 -2.12132 2.12132 
C -1.55874 2.683901 -0.795609 3 0 3 
z
" style="stroke: #ffa500"/>
    </defs>
    <g clip-path="url(#pf965525e24)">
     <use xlink:href="#md2c1e84784" x="480.957713" y="448.596083" style="fill: #ffa500; stroke: #ffa500"/>
     <use xlink:href="#md2c1e84784" x="411.207713" y="351.947648" style="fill: #ffa500; stroke: #ffa500"/>
     <use xlink:href="#md2c1e84784" x="439.107713" y="427.885704" style="fill: #ffa500; stroke: #ffa500"/>
     <use xlink:href="#md2c1e84784" x="288.447713" y="390.607022" style="fill: #ffa500; stroke: #ffa500"/>
     <use xlink:href="#md2c1e84784" x="426.425895" y="343.161426" style="fill: #ffa500; stroke: #ffa500"/>
     <use xlink:href="#md2c1e84784" x="425.607713" y="457.949157" style="fill: #ffa500; stroke: #ffa500"/>
     <use xlink:href="#md2c1e84784" x="426.79889" y="333.470741" style="fill: #ffa500; stroke: #ffa500"/>
     <use xlink:href="#md2c1e84784" x="426.425895" y="343.161426" style="fill: #ffa500; stroke: #ffa500"/>
     <use xlink:href="#md2c1e84784" x="415.857713" y="376.109756" style="fill: #ffa500; stroke: #ffa500"/>
     <use xlink:href="#md2c1e84784" x="324.971349" y="343.161426" style="fill: #ffa500; stroke: #ffa500"/>
     <use xlink:href="#md2c1e84784" x="362.015608" y="223.506964" style="fill: #ffa500; stroke: #ffa500"/>
     <use xlink:href="#md2c1e84784" x="415.857713" y="376.109756" style="fill: #ffa500; stroke: #ffa500"/>
     <use xlink:href="#md2c1e84784" x="334.482713" y="315.704485" style="fill: #ffa500; stroke: #ffa500"/>
     <use xlink:href="#md2c1e84784" x="411.207713" y="448.596083" style="fill: #ffa500; stroke: #ffa500"/>
     <use xlink:href="#md2c1e84784" x="305.948622" y="376.109756" style="fill: #ffa500; stroke: #ffa500"/>
     <use xlink:href="#md2c1e84784" x="334.482713" y="315.704485" style="fill: #ffa500; stroke: #ffa500"/>
     <use xlink:href="#md2c1e84784" x="408.107713" y="496.9203" style="fill: #ffa500; stroke: #ffa500"/>
     <use xlink:href="#md2c1e84784" x="415.857713" y="376.109756" style="fill: #ffa500; stroke: #ffa500"/>
     <use xlink:href="#md2c1e84784" x="415.857713" y="376.109756" style="fill: #ffa500; stroke: #ffa500"/>
     <use xlink:href="#md2c1e84784" x="411.207713" y="351.947648" style="fill: #ffa500; stroke: #ffa500"/>
     <use xlink:href="#md2c1e84784" x="279.679142" y="427.885704" style="fill: #ffa500; stroke: #ffa500"/>
     <use xlink:href="#md2c1e84784" x="439.107713" y="565.954897" style="fill: #ffa500; stroke: #ffa500"/>
    </g>
   </g>
   <g id="PathCollection_4">
    <defs>
     <path id="m5f2794bec4" d="M 0 3 
C 0.795609 3 1.55874 2.683901 2.12132 2.12132 
C 2.683901 1.55874 3 0.795609 3 0 
C 3 -0.795609 2.683901 -1.55874 2.12132 -2.12132 
C 1.55874 -2.683901 0.795609 -3 0 -3 
C -0.795609 -3 -1.55874 -2.683901 -2.12132 -2.12132 
C -2.683901 -1.55874 -3 -0.795609 -3 0 
C -3 0.795609 -2.683901 1.55874 -2.12132 2.12132 
C -1.55874 2.683901 -0.795609 3 0 3 
z
" style="stroke: #ff0000"/>
    </defs>
    <g clip-path="url(#pf965525e24)">
     <use xlink:href="#m5f2794bec4" x="553.244077" y="277.264766" style="fill: #ff0000; stroke: #ff0000"/>
    </g>
   </g>
   <g id="PathCollection_5">
    <defs>
     <path id="m3f2ab712a9" d="M 0 3 
C 0.795609 3 1.55874 2.683901 2.12132 2.12132 
C 2.683901 1.55874 3 0.795609 3 0 
C 3 -0.795609 2.683901 -1.55874 2.12132 -2.12132 
C 1.55874 -2.683901 0.795609 -3 0 -3 
C -0.795609 -3 -1.55874 -2.683901 -2.12132 -2.12132 
C -2.683901 -1.55874 -3 -0.795609 -3 0 
C -3 0.795609 -2.683901 1.55874 -2.12132 2.12132 
C -1.55874 2.683901 -0.795609 3 0 3 
z
" style="stroke: #ffff00"/>
    </defs>
    <g clip-path="url(#pf965525e24)">
     <use xlink:href="#m3f2ab712a9" x="358.626944" y="710.662032" style="fill: #ffff00; stroke: #ffff00"/>
    </g>
   </g>
   <g id="matplotlib.axis_1">
    <g id="xtick_1">
     <g id="line2d_1">
      <path d="M 857.607713 738.541388 
L 20.607713 738.541388 
" style="fill: none; stroke: #b0b0b0; stroke-opacity: 0.75; stroke-width: 0.8; stroke-linecap: square"/>
     </g>
    </g>
    <g id="xtick_2">
     <g id="line2d_2">
      <path d="M 773.907713 593.568735 
L 104.307713 593.568735 
" style="fill: none; stroke: #b0b0b0; stroke-opacity: 0.75; stroke-width: 0.8; stroke-linecap: square"/>
     </g>
    </g>
    <g id="xtick_3">
     <g id="line2d_3">
      <path d="M 690.207713 448.596083 
L 188.007713 448.596083 
" style="fill: none; stroke: #b0b0b0; stroke-opacity: 0.75; stroke-width: 0.8; stroke-linecap: square"/>
     </g>
    </g>
    <g id="xtick_4">
     <g id="line2d_4">
      <path d="M 606.507713 303.62343 
L 271.707713 303.62343 
" style="fill: none; stroke: #b0b0b0; stroke-opacity: 0.75; stroke-width: 0.8; stroke-linecap: square"/>
     </g>
    </g>
    <g id="xtick_5">
     <g id="line2d_5">
      <path d="M 522.807713 158.650778 
L 355.407713 158.650778 
" style="fill: none; stroke: #b0b0b0; stroke-opacity: 0.75; stroke-width: 0.8; stroke-linecap: square"/>
     </g>
    </g>
    <g id="xtick_6">
     <g id="line2d_6">
      <path d="M 439.107713 13.678125 
L 439.107713 13.678125 
" style="fill: none; stroke: #b0b0b0; stroke-opacity: 0.75; stroke-width: 0.8; stroke-linecap: square"/>
     </g>
    </g>
    <g id="text_1">
     <!-- Sugar -->
     <g transform="translate(424.470994 7.598438) scale(0.1 -0.1)">
      <defs>
       <path id="DejaVuSans-53" d="M 3425 4513 
L 3425 3897 
Q 3066 4069 2747 4153 
Q 2428 4238 2131 4238 
Q 1616 4238 1336 4038 
Q 1056 3838 1056 3469 
Q 1056 3159 1242 3001 
Q 1428 2844 1947 2747 
L 2328 2669 
Q 3034 2534 3370 2195 
Q 3706 1856 3706 1288 
Q 3706 609 3251 259 
Q 2797 -91 1919 -91 
Q 1588 -91 1214 -16 
Q 841 59 441 206 
L 441 856 
Q 825 641 1194 531 
Q 1563 422 1919 422 
Q 2459 422 2753 634 
Q 3047 847 3047 1241 
Q 3047 1584 2836 1778 
Q 2625 1972 2144 2069 
L 1759 2144 
Q 1053 2284 737 2584 
Q 422 2884 422 3419 
Q 422 4038 858 4394 
Q 1294 4750 2059 4750 
Q 2388 4750 2728 4690 
Q 3069 4631 3425 4513 
z
" transform="scale(0.015625)"/>
       <path id="DejaVuSans-75" d="M 544 1381 
L 544 3500 
L 1119 3500 
L 1119 1403 
Q 1119 906 1312 657 
Q 1506 409 1894 409 
Q 2359 409 2629 706 
Q 2900 1003 2900 1516 
L 2900 3500 
L 3475 3500 
L 3475 0 
L 2900 0 
L 2900 538 
Q 2691 219 2414 64 
Q 2138 -91 1772 -91 
Q 1169 -91 856 284 
Q 544 659 544 1381 
z
M 1991 3584 
L 1991 3584 
z
" transform="scale(0.015625)"/>
       <path id="DejaVuSans-67" d="M 2906 1791 
Q 2906 2416 2648 2759 
Q 2391 3103 1925 3103 
Q 1463 3103 1205 2759 
Q 947 2416 947 1791 
Q 947 1169 1205 825 
Q 1463 481 1925 481 
Q 2391 481 2648 825 
Q 2906 1169 2906 1791 
z
M 3481 434 
Q 3481 -459 3084 -895 
Q 2688 -1331 1869 -1331 
Q 1566 -1331 1297 -1286 
Q 1028 -1241 775 -1147 
L 775 -588 
Q 1028 -725 1275 -790 
Q 1522 -856 1778 -856 
Q 2344 -856 2625 -561 
Q 2906 -266 2906 331 
L 2906 616 
Q 2728 306 2450 153 
Q 2172 0 1784 0 
Q 1141 0 747 490 
Q 353 981 353 1791 
Q 353 2603 747 3093 
Q 1141 3584 1784 3584 
Q 2172 3584 2450 3431 
Q 2728 3278 2906 2969 
L 2906 3500 
L 3481 3500 
L 3481 434 
z
" transform="scale(0.015625)"/>
       <path id="DejaVuSans-61" d="M 2194 1759 
Q 1497 1759 1228 1600 
Q 959 1441 959 1056 
Q 959 750 1161 570 
Q 1363 391 1709 391 
Q 2188 391 2477 730 
Q 2766 1069 2766 1631 
L 2766 1759 
L 2194 1759 
z
M 3341 1997 
L 3341 0 
L 2766 0 
L 2766 531 
Q 2569 213 2275 61 
Q 1981 -91 1556 -91 
Q 1019 -91 701 211 
Q 384 513 384 1019 
Q 384 1609 779 1909 
Q 1175 2209 1959 2209 
L 2766 2209 
L 2766 2266 
Q 2766 2663 2505 2880 
Q 2244 3097 1772 3097 
Q 1472 3097 1187 3025 
Q 903 2953 641 2809 
L 641 3341 
Q 956 3463 1253 3523 
Q 1550 3584 1831 3584 
Q 2591 3584 2966 3190 
Q 3341 2797 3341 1997 
z
" transform="scale(0.015625)"/>
       <path id="DejaVuSans-72" d="M 2631 2963 
Q 2534 3019 2420 3045 
Q 2306 3072 2169 3072 
Q 1681 3072 1420 2755 
Q 1159 2438 1159 1844 
L 1159 0 
L 581 0 
L 581 3500 
L 1159 3500 
L 1159 2956 
Q 1341 3275 1631 3429 
Q 1922 3584 2338 3584 
Q 2397 3584 2469 3576 
Q 2541 3569 2628 3553 
L 2631 2963 
z
" transform="scale(0.015625)"/>
      </defs>
      <use xlink:href="#DejaVuSans-53"/>
      <use xlink:href="#DejaVuSans-75" x="63.476562"/>
      <use xlink:href="#DejaVuSans-67" x="126.855469"/>
      <use xlink:href="#DejaVuSans-61" x="190.332031"/>
      <use xlink:href="#DejaVuSans-72" x="251.611328"/>
     </g>
    </g>
   </g>
   <g id="matplotlib.axis_2">
    <g id="xtick_7">
     <g id="line2d_7">
      <path d="M 439.107713 13.678125 
L 857.607713 738.541388 
" style="fill: none; stroke: #b0b0b0; stroke-opacity: 0.75; stroke-width: 0.8; stroke-linecap: square"/>
     </g>
    </g>
    <g id="xtick_8">
     <g id="line2d_8">
      <path d="M 355.407713 158.650778 
L 690.207713 738.541388 
" style="fill: none; stroke: #b0b0b0; stroke-opacity: 0.75; stroke-width: 0.8; stroke-linecap: square"/>
     </g>
    </g>
    <g id="xtick_9">
     <g id="line2d_9">
      <path d="M 271.707713 303.62343 
L 522.807713 738.541388 
" style="fill: none; stroke: #b0b0b0; stroke-opacity: 0.75; stroke-width: 0.8; stroke-linecap: square"/>
     </g>
    </g>
    <g id="xtick_10">
     <g id="line2d_10">
      <path d="M 188.007713 448.596083 
L 355.407713 738.541388 
" style="fill: none; stroke: #b0b0b0; stroke-opacity: 0.75; stroke-width: 0.8; stroke-linecap: square"/>
     </g>
    </g>
    <g id="xtick_11">
     <g id="line2d_11">
      <path d="M 104.307713 593.568735 
L 188.007713 738.541388 
" style="fill: none; stroke: #b0b0b0; stroke-opacity: 0.75; stroke-width: 0.8; stroke-linecap: square"/>
     </g>
    </g>
    <g id="xtick_12">
     <g id="line2d_12">
      <path d="M 20.607713 738.541388 
L 20.607713 738.541388 
" style="fill: none; stroke: #b0b0b0; stroke-opacity: 0.75; stroke-width: 0.8; stroke-linecap: square"/>
     </g>
    </g>
    <g id="text_2">
     <!-- Protein -->
     <g transform="translate(1.801062 729.164188) rotate(-300) scale(0.1 -0.1)">
      <defs>
       <path id="DejaVuSans-50" d="M 1259 4147 
L 1259 2394 
L 2053 2394 
Q 2494 2394 2734 2622 
Q 2975 2850 2975 3272 
Q 2975 3691 2734 3919 
Q 2494 4147 2053 4147 
L 1259 4147 
z
M 628 4666 
L 2053 4666 
Q 2838 4666 3239 4311 
Q 3641 3956 3641 3272 
Q 3641 2581 3239 2228 
Q 2838 1875 2053 1875 
L 1259 1875 
L 1259 0 
L 628 0 
L 628 4666 
z
" transform="scale(0.015625)"/>
       <path id="DejaVuSans-6f" d="M 1959 3097 
Q 1497 3097 1228 2736 
Q 959 2375 959 1747 
Q 959 1119 1226 758 
Q 1494 397 1959 397 
Q 2419 397 2687 759 
Q 2956 1122 2956 1747 
Q 2956 2369 2687 2733 
Q 2419 3097 1959 3097 
z
M 1959 3584 
Q 2709 3584 3137 3096 
Q 3566 2609 3566 1747 
Q 3566 888 3137 398 
Q 2709 -91 1959 -91 
Q 1206 -91 779 398 
Q 353 888 353 1747 
Q 353 2609 779 3096 
Q 1206 3584 1959 3584 
z
" transform="scale(0.015625)"/>
       <path id="DejaVuSans-74" d="M 1172 4494 
L 1172 3500 
L 2356 3500 
L 2356 3053 
L 1172 3053 
L 1172 1153 
Q 1172 725 1289 603 
Q 1406 481 1766 481 
L 2356 481 
L 2356 0 
L 1766 0 
Q 1100 0 847 248 
Q 594 497 594 1153 
L 594 3053 
L 172 3053 
L 172 3500 
L 594 3500 
L 594 4494 
L 1172 4494 
z
" transform="scale(0.015625)"/>
       <path id="DejaVuSans-65" d="M 3597 1894 
L 3597 1613 
L 953 1613 
Q 991 1019 1311 708 
Q 1631 397 2203 397 
Q 2534 397 2845 478 
Q 3156 559 3463 722 
L 3463 178 
Q 3153 47 2828 -22 
Q 2503 -91 2169 -91 
Q 1331 -91 842 396 
Q 353 884 353 1716 
Q 353 2575 817 3079 
Q 1281 3584 2069 3584 
Q 2775 3584 3186 3129 
Q 3597 2675 3597 1894 
z
M 3022 2063 
Q 3016 2534 2758 2815 
Q 2500 3097 2075 3097 
Q 1594 3097 1305 2825 
Q 1016 2553 972 2059 
L 3022 2063 
z
" transform="scale(0.015625)"/>
       <path id="DejaVuSans-69" d="M 603 3500 
L 1178 3500 
L 1178 0 
L 603 0 
L 603 3500 
z
M 603 4863 
L 1178 4863 
L 1178 4134 
L 603 4134 
L 603 4863 
z
" transform="scale(0.015625)"/>
       <path id="DejaVuSans-6e" d="M 3513 2113 
L 3513 0 
L 2938 0 
L 2938 2094 
Q 2938 2591 2744 2837 
Q 2550 3084 2163 3084 
Q 1697 3084 1428 2787 
Q 1159 2491 1159 1978 
L 1159 0 
L 581 0 
L 581 3500 
L 1159 3500 
L 1159 2956 
Q 1366 3272 1645 3428 
Q 1925 3584 2291 3584 
Q 2894 3584 3203 3211 
Q 3513 2838 3513 2113 
z
" transform="scale(0.015625)"/>
      </defs>
      <use xlink:href="#DejaVuSans-50"/>
      <use xlink:href="#DejaVuSans-72" x="58.552734"/>
      <use xlink:href="#DejaVuSans-6f" x="97.416016"/>
      <use xlink:href="#DejaVuSans-74" x="158.597656"/>
      <use xlink:href="#DejaVuSans-65" x="197.806641"/>
      <use xlink:href="#DejaVuSans-69" x="259.330078"/>
      <use xlink:href="#DejaVuSans-6e" x="287.113281"/>
     </g>
    </g>
   </g>
   <g id="matplotlib.axis_3">
    <g id="xtick_13">
     <g id="line2d_13">
      <path d="M 20.607713 738.541388 
L 439.107713 13.678125 
" style="fill: none; stroke: #b0b0b0; stroke-opacity: 0.75; stroke-width: 0.8; stroke-linecap: square"/>
     </g>
    </g>
    <g id="xtick_14">
     <g id="line2d_14">
      <path d="M 188.007713 738.541388 
L 522.807713 158.650778 
" style="fill: none; stroke: #b0b0b0; stroke-opacity: 0.75; stroke-width: 0.8; stroke-linecap: square"/>
     </g>
    </g>
    <g id="xtick_15">
     <g id="line2d_15">
      <path d="M 355.407713 738.541388 
L 606.507713 303.62343 
" style="fill: none; stroke: #b0b0b0; stroke-opacity: 0.75; stroke-width: 0.8; stroke-linecap: square"/>
     </g>
    </g>
    <g id="xtick_16">
     <g id="line2d_16">
      <path d="M 522.807713 738.541388 
L 690.207713 448.596083 
" style="fill: none; stroke: #b0b0b0; stroke-opacity: 0.75; stroke-width: 0.8; stroke-linecap: square"/>
     </g>
    </g>
    <g id="xtick_17">
     <g id="line2d_17">
      <path d="M 690.207713 738.541388 
L 773.907713 593.568735 
" style="fill: none; stroke: #b0b0b0; stroke-opacity: 0.75; stroke-width: 0.8; stroke-linecap: square"/>
     </g>
    </g>
    <g id="xtick_18">
     <g id="line2d_18">
      <path d="M 857.607713 738.541388 
L 857.607713 738.541388 
" style="fill: none; stroke: #b0b0b0; stroke-opacity: 0.75; stroke-width: 0.8; stroke-linecap: square"/>
     </g>
    </g>
    <g id="text_3">
     <!-- Fat -->
     <g transform="translate(863.93038 750.787083) rotate(-60) scale(0.1 -0.1)">
      <defs>
       <path id="DejaVuSans-46" d="M 628 4666 
L 3309 4666 
L 3309 4134 
L 1259 4134 
L 1259 2759 
L 3109 2759 
L 3109 2228 
L 1259 2228 
L 1259 0 
L 628 0 
L 628 4666 
z
" transform="scale(0.015625)"/>
      </defs>
      <use xlink:href="#DejaVuSans-46"/>
      <use xlink:href="#DejaVuSans-61" x="48.394531"/>
      <use xlink:href="#DejaVuSans-74" x="109.673828"/>
     </g>
    </g>
   </g>
   <g id="patch_3">
    <path d="M 857.607713 738.541388 
L 20.607713 738.541388 
" style="fill: none; stroke: #000000; stroke-width: 0.8; stroke-linejoin: miter; stroke-linecap: square"/>
   </g>
   <g id="patch_4">
    <path d="M 439.107713 13.678125 
L 439.107713 13.678125 
" style="fill: none; stroke: #000000; stroke-width: 0.8; stroke-linejoin: miter; stroke-linecap: square"/>
   </g>
   <g id="patch_5">
    <path d="M 439.107713 13.678125 
L 857.607713 738.541388 
" style="fill: none; stroke: #000000; stroke-width: 0.8; stroke-linejoin: miter; stroke-linecap: square"/>
   </g>
   <g id="patch_6">
    <path d="M 20.607713 738.541388 
L 20.607713 738.541388 
" style="fill: none; stroke: #000000; stroke-width: 0.8; stroke-linejoin: miter; stroke-linecap: square"/>
   </g>
   <g id="patch_7">
    <path d="M 20.607713 738.541388 
L 439.107713 13.678125 
" style="fill: none; stroke: #000000; stroke-width: 0.8; stroke-linejoin: miter; stroke-linecap: square"/>
   </g>
   <g id="patch_8">
    <path d="M 857.607713 738.541388 
L 857.607713 738.541388 
" style="fill: none; stroke: #000000; stroke-width: 0.8; stroke-linejoin: miter; stroke-linecap: square"/>
   </g>
  </g>
 </g>
 <defs>
  <clipPath id="pf965525e24">
   <path d="M 439.107713 13.678125 
L 439.107713 13.678125 
L 20.607713 738.541388 
L 20.607713 738.541388 
L 857.607713 738.541388 
L 857.607713 738.541388 
z
"/>
  </clipPath>
 </defs>
</svg>
